<svg width="9" height="17" viewBox="0 0 9 17" fill="none" xmlns="http://www.w3.org/2000/svg">
<path d="M8.76035 0.25C8.92012 0.416666 9 0.625 9 0.875C9 1.125 8.92012 1.33333 8.76035 1.5L2.0503 8.5L8.76035 15.5C8.92012 15.6667 9 15.875 9 16.125C9 16.375 8.92012 16.5833 8.76035 16.75C8.58284 16.9167 8.3787 17 8.14793 17C7.91716 17 7.72189 16.9167 7.56213 16.75L0.239645 9.13889C0.168639 9.0463 0.110947 8.94444 0.066568 8.83333C0.0221893 8.72222 0 8.61111 0 8.5C0 8.38889 0.0221893 8.27778 0.066568 8.16667C0.110947 8.05556 0.168639 7.9537 0.239645 7.86111L7.56213 0.25C7.72189 0.083334 7.91716 0 8.14793 0C8.3787 0 8.58284 0.083334 8.76035 0.25Z" fill="white"/>
</svg>
