<svg width="20" height="21" fill="none" xmlns="http://www.w3.org/2000/svg"><g clip-path="url(#clip0_35_6479)"><path d="M4.959 5.342a1.48 1.48 0 00-1.101.46c-.3.306-.45.676-.45 1.11 0 .434.15.804.45 1.11.3.306.667.46 1.1.46.434 0 .805-.154 1.11-.46a1.51 1.51 0 00.46-1.11 1.51 1.51 0 00-.46-1.11 1.513 1.513 0 00-1.11-.46zm-2.719.957c.14-.625.463-1.145.967-1.56a2.676 2.676 0 011.752-.622 2.68 2.68 0 011.98.823c.543.549.814 1.206.814 1.972 0 .778-.27 1.439-.813 1.981a2.696 2.696 0 01-1.981.814 2.676 2.676 0 01-1.752-.623 2.752 2.752 0 01-.967-1.56H.613A.605.605 0 010 6.912a.59.59 0 01.182-.431.589.589 0 01.431-.182H2.24zm6.47.613a.59.59 0 01.182-.431.589.589 0 01.431-.182h6.528c.166 0 .31.06.43.182a.589.589 0 01.183.43c0 .167-.061.31-.182.431a.589.589 0 01-.431.182H9.323a.589.589 0 01-.43-.182.589.589 0 01-.182-.43zm2.795 5.245a1.51 1.51 0 00-1.11.46c-.306.306-.46.676-.46 1.11 0 .434.154.804.46 1.11.306.306.677.46 1.11.46.434 0 .801-.154 1.101-.46.3-.306.45-.676.45-1.11 0-.434-.15-.804-.45-1.11a1.48 1.48 0 00-1.1-.46zm-2.794 1.57c0-.779.27-1.44.813-1.982a2.696 2.696 0 011.982-.813c.663 0 1.247.207 1.751.622.504.415.827.935.967 1.56h1.627a.605.605 0 01.613.613c0 .165-.061.31-.182.43a.589.589 0 01-.431.182h-1.627a2.751 2.751 0 01-.967 1.56 2.676 2.676 0 01-1.752.623 2.68 2.68 0 01-1.98-.824 2.706 2.706 0 01-.814-1.971zm-8.71 0a.605.605 0 01.613-.613H7.14a.605.605 0 01.612.613c0 .165-.06.31-.181.43a.589.589 0 01-.431.182H.613a.589.589 0 01-.43-.182.589.589 0 01-.183-.43z" fill="#000"/></g><defs><clipPath id="clip0_35_6479"><path fill="#fff" transform="matrix(1 0 0 -1 0 20.186)" d="M0 0h19.603v19.603H0z"/></clipPath></defs></svg>