<svg xmlns="http://www.w3.org/2000/svg" width="20" height="20" viewBox="0 0 20 20" fill="none">
  <path d="M0 7.09239C0 6.13225 0.144231 5.22645 0.432692 4.375C0.721154 3.52355 1.12179 2.77174 1.63462 2.11957C2.14744 1.46739 2.7484 0.951088 3.4375 0.570652C4.14263 0.190218 4.89583 0 5.69712 0C6.5625 0 7.36779 0.22192 8.11298 0.665762C8.85817 1.1096 9.48718 1.7029 10 2.44565C10.5128 1.7029 11.1418 1.1096 11.887 0.665762C12.6322 0.22192 13.4375 0 14.3029 0C15.1042 0 15.8574 0.190218 16.5625 0.570652C17.2516 0.951088 17.8526 1.46739 18.3654 2.11957C18.8782 2.77174 19.2788 3.52355 19.5673 4.375C19.8558 5.22645 20 6.13225 20 7.09239C20 7.87138 19.8838 8.62319 19.6514 9.34783C19.4191 10.0725 19.1186 10.7699 18.75 11.4402C18.3814 12.1286 17.9527 12.7808 17.4639 13.3967C16.9752 14.0127 16.4744 14.6014 15.9615 15.163C14.9038 16.2862 13.8502 17.26 12.8005 18.0842C11.7508 18.9085 10.9535 19.5018 10.4087 19.8641C10.2804 19.9547 10.1442 20 10 20C9.85577 20 9.71955 19.9547 9.59135 19.8641C9.04647 19.4837 8.2492 18.8859 7.19952 18.0707C6.14984 17.2554 5.09615 16.2862 4.03846 15.163C3.52564 14.6014 3.02484 14.0127 2.53606 13.3967C2.04728 12.7808 1.61859 12.1286 1.25 11.4402C0.88141 10.7699 0.58093 10.0725 0.348558 9.34783C0.116186 8.62319 0 7.87138 0 7.09239ZM5.69712 1.73913C4.59135 1.73913 3.62179 2.25091 2.78846 3.27446C1.95513 4.29801 1.53846 5.57065 1.53846 7.09239C1.53846 7.63587 1.6266 8.19746 1.80288 8.77717C1.97917 9.35688 2.23558 9.94565 2.57212 10.5435C2.89263 11.1232 3.26923 11.6938 3.70192 12.2554C4.13462 12.817 4.59936 13.3696 5.09615 13.913C5.97756 14.837 6.87099 15.6658 7.77644 16.3995C8.68189 17.1332 9.42308 17.6993 10 18.0978C10.5769 17.6993 11.3181 17.1332 12.2236 16.3995C13.129 15.6658 14.0224 14.837 14.9038 13.913C15.4006 13.3877 15.8654 12.8397 16.2981 12.269C16.7308 11.6984 17.1074 11.1232 17.4279 10.5435C17.7644 9.94565 18.0208 9.35688 18.1971 8.77717C18.3734 8.19746 18.4615 7.63587 18.4615 7.09239C18.4615 5.57065 18.0449 4.29801 17.2115 3.27446C16.3782 2.25091 15.4087 1.73913 14.3029 1.73913C13.5497 1.73913 12.8486 1.9837 12.1995 2.47283C11.5505 2.96196 11.0497 3.62319 10.6971 4.45652C10.633 4.61957 10.5369 4.74185 10.4087 4.82337C10.2804 4.90489 10.1442 4.94565 10 4.94565C9.85577 4.94565 9.71955 4.90489 9.59135 4.82337C9.46314 4.74185 9.36699 4.61957 9.30289 4.45652C8.95032 3.62319 8.44952 2.96196 7.80048 2.47283C7.15144 1.9837 6.45032 1.73913 5.69712 1.73913Z" fill="white"/>
</svg>
