<svg width="23" height="21" fill="none" xmlns="http://www.w3.org/2000/svg"><path d="M0 7.447c0-1.008.166-1.96.498-2.853A7.694 7.694 0 011.88 2.226 6.686 6.686 0 013.953.599 5.809 5.809 0 016.552 0c.995 0 1.921.233 2.778.699a6.71 6.71 0 012.17 1.869A6.71 6.71 0 0113.67.699 5.723 5.723 0 0116.448 0c.922 0 1.788.2 2.599.6.792.399 1.483.94 2.073 1.626a7.694 7.694 0 011.382 2.368c.332.894.498 1.845.498 2.853 0 .818-.134 1.607-.4 2.368a11.93 11.93 0 01-1.038 2.197 13.667 13.667 0 01-1.479 2.055 36.277 36.277 0 01-1.727 1.854 32.258 32.258 0 01-3.635 3.067c-1.208.866-2.124 1.489-2.751 1.87a.853.853 0 01-.94 0 73.806 73.806 0 01-2.75-1.884 31.096 31.096 0 01-3.636-3.053 36.26 36.26 0 01-1.728-1.854 13.665 13.665 0 01-1.478-2.055A11.879 11.879 0 01.4 9.815 7.12 7.12 0 010 7.447zm6.552-5.62c-1.272 0-2.387.536-3.345 1.611-.959 1.075-1.438 2.411-1.438 4.009 0 .57.102 1.16.304 1.769a8.92 8.92 0 00.885 1.855c.369.608.802 1.207 1.3 1.797.497.59 1.031 1.17 1.603 1.74a31.76 31.76 0 003.082 2.611c1.041.77 1.893 1.365 2.557 1.784.664-.419 1.516-1.013 2.557-1.784a31.958 31.958 0 003.082-2.61 21.432 21.432 0 001.604-1.726c.497-.6.93-1.204 1.3-1.812a8.92 8.92 0 00.884-1.855 5.587 5.587 0 00.304-1.769c0-1.598-.48-2.934-1.438-4.009-.958-1.075-2.073-1.612-3.345-1.612-.866 0-1.672.257-2.419.77-.746.514-1.322 1.208-1.727 2.083a.792.792 0 01-.332.386.921.921 0 01-.94 0 .792.792 0 01-.332-.386c-.405-.875-.981-1.569-1.727-2.083-.747-.513-1.553-.77-2.42-.77z" fill="#fff"/></svg>