<svg width="18" height="20" fill="none" xmlns="http://www.w3.org/2000/svg"><path d="M7.837 2.292l-5.12 2.885a2.297 2.297 0 00-.866.841 2.227 2.227 0 00-.313 1.154v8.99c0 .626.225 1.166.674 1.623.448.457.993.685 1.634.685H5.12v-5.384c0-.786.277-1.455.83-2.008a2.706 2.706 0 011.983-.829H10c.77 0 1.43.277 1.983.83.553.552.83 1.221.83 2.007v5.384h1.273c.642 0 1.186-.228 1.635-.685.449-.457.673-.997.673-1.622v-8.99c0-.417-.104-.802-.312-1.155a2.297 2.297 0 00-.866-.84l-5.12-2.886a2.185 2.185 0 00-1.13-.312c-.4 0-.777.104-1.13.312zm3.437 16.178v-5.384c0-.369-.124-.677-.373-.926a1.228 1.228 0 00-.901-.372H7.933a1.23 1.23 0 00-.902.372 1.257 1.257 0 00-.372.926v5.384h4.615zM5.12 20.01H3.846c-1.074 0-1.983-.377-2.728-1.13A3.724 3.724 0 010 16.163v-8.99c0-.69.172-1.335.517-1.936a3.656 3.656 0 011.43-1.406L7.091.946A3.657 3.657 0 018.966.441c.673 0 1.298.169 1.875.505l5.145 2.885a3.657 3.657 0 011.43 1.406c.344.601.517 1.246.517 1.935v8.99a3.724 3.724 0 01-1.118 2.717c-.745.753-1.655 1.13-2.729 1.13H5.12z" fill="#fff"/></svg>