<svg width="23" height="21" fill="none" xmlns="http://www.w3.org/2000/svg"><path d="M0 7.392C0 6.39.17 5.447.51 4.56c.34-.888.812-1.671 1.416-2.351A6.822 6.822 0 014.05.595 6.102 6.102 0 016.712 0c1.02 0 1.968.231 2.846.694a6.818 6.818 0 012.223 1.855A6.819 6.819 0 0114.004.694 6.014 6.014 0 0116.851 0c.944 0 1.831.198 2.662.595.811.396 1.52.934 2.124 1.614a7.585 7.585 0 011.416 2.35c.34.888.51 1.832.51 2.833 0 .811-.137 1.595-.411 2.35a11.63 11.63 0 01-1.062 2.18c-.434.718-.94 1.398-1.515 2.04a36.421 36.421 0 01-1.77 1.84 32.81 32.81 0 01-3.724 3.045c-1.237.86-2.176 1.477-2.818 1.855a.893.893 0 01-.963 0 75.797 75.797 0 01-2.818-1.869 31.63 31.63 0 01-3.724-3.03 36.461 36.461 0 01-1.77-1.841 13.584 13.584 0 01-1.515-2.04A11.63 11.63 0 01.41 9.743 6.845 6.845 0 010 7.392zm6.712-5.58c-1.303 0-2.445.534-3.427 1.6-.982 1.067-1.473 2.394-1.473 3.98 0 .566.104 1.151.312 1.755.208.605.51 1.218.906 1.841.378.604.822 1.2 1.331 1.785A27.99 27.99 0 006.004 14.5a32.498 32.498 0 003.158 2.591c1.066.765 1.94 1.355 2.62 1.77.679-.415 1.552-1.005 2.619-1.77a32.5 32.5 0 003.158-2.591 21.56 21.56 0 001.642-1.713 14.94 14.94 0 001.331-1.799 8.734 8.734 0 00.907-1.84c.207-.605.311-1.19.311-1.756 0-1.586-.49-2.913-1.473-3.98-.981-1.066-2.124-1.6-3.426-1.6-.888 0-1.714.255-2.478.765a5.044 5.044 0 00-1.77 2.068.794.794 0 01-.34.382.967.967 0 01-.963 0 .794.794 0 01-.34-.382 5.045 5.045 0 00-1.77-2.068 4.382 4.382 0 00-2.478-.764z" fill="#fff"/></svg>