<svg width="21" height="20" fill="none" xmlns="http://www.w3.org/2000/svg"><path d="M.693 1.25A.74.74 0 01.92.709a.74.74 0 01.541-.228H2.88a1.824 1.824 0 011.61.986l.53 1.057h14.014c.497 0 .87.212 1.118.637.248.425.252.853.012 1.286l-3.39 5.89a1.749 1.749 0 01-1.538.913H7.52l-1.346 2.163a.283.283 0 000 .277c.048.088.12.132.216.132h11.49a.76.76 0 01.541.216.728.728 0 01.229.553.739.739 0 01-.229.541.74.74 0 01-.54.229H6.39c-.705 0-1.23-.309-1.575-.926-.344-.617-.324-1.23.06-1.839l1.37-2.212-2.403-6.778-.721-1.443a.347.347 0 00-.108-.108.252.252 0 00-.133-.036H1.462a.74.74 0 01-.54-.228.74.74 0 01-.23-.541zM5.62 4.062l2.019 5.65h7.596a.215.215 0 00.108-.037.56.56 0 00.109-.084l3.149-5.529H5.62zM8.65 18.173c0 .433-.153.797-.457 1.094a1.498 1.498 0 01-1.082.444c-.433 0-.797-.148-1.094-.444a1.487 1.487 0 01-.444-1.094c0-.433.148-.797.444-1.094a1.487 1.487 0 011.094-.445c.417 0 .777.149 1.082.445.304.297.457.661.457 1.094zm7.692 1.538c.417 0 .777-.148 1.082-.444.304-.297.456-.661.456-1.094 0-.433-.152-.797-.456-1.094a1.498 1.498 0 00-1.082-.445c-.433 0-.797.149-1.094.445a1.487 1.487 0 00-.445 1.094c0 .433.149.797.445 1.094.297.296.661.444 1.094.444z" fill="#fff"/></svg>