<svg width="20" height="21" fill="none" xmlns="http://www.w3.org/2000/svg"><path d="M10 1.762c-1.17 0-2.267.224-3.293.673a8.366 8.366 0 00-2.692 1.803A8.366 8.366 0 002.212 6.93a8.125 8.125 0 00-.673 3.294c0 1.025.172 1.999.517 2.92a8.61 8.61 0 001.43 2.488c.737-.769 1.627-1.426 2.668-1.97 1.042-.546 2.324-.818 3.847-.818 1.522 0 2.804.272 3.846.817 1.041.545 1.93 1.202 2.668 1.971a8.61 8.61 0 001.43-2.488 8.27 8.27 0 00.517-2.92c0-1.17-.224-2.268-.673-3.294a8.365 8.365 0 00-1.803-2.692 8.367 8.367 0 00-2.692-1.803A8.126 8.126 0 0010 1.762zm5.433 14.952a8.838 8.838 0 00-2.247-1.659c-.858-.448-1.92-.673-3.185-.673-1.267 0-2.328.225-3.186.673a8.839 8.839 0 00-2.247 1.659 8.783 8.783 0 002.5 1.442c.93.353 1.907.53 2.933.53a8.199 8.199 0 002.932-.53 8.783 8.783 0 002.5-1.442zM0 10.224c0-1.379.265-2.677.794-3.895A9.872 9.872 0 012.92 3.144a9.872 9.872 0 013.185-2.127 9.671 9.671 0 013.895-.793c1.378 0 2.676.264 3.894.793a9.871 9.871 0 013.185 2.127 9.871 9.871 0 012.127 3.185A9.67 9.67 0 0120 10.224a9.67 9.67 0 01-.793 3.894 9.872 9.872 0 01-2.127 3.185 9.873 9.873 0 01-3.185 2.127 9.672 9.672 0 01-3.894.794 9.672 9.672 0 01-3.895-.794 9.874 9.874 0 01-3.185-2.127 9.873 9.873 0 01-2.127-3.185A9.672 9.672 0 010 10.224zm10-4.568c-.72 0-1.338.257-1.85.77a2.523 2.523 0 00-.77 1.85c0 .738.257 1.363.77 1.876.512.512 1.13.769 1.85.769.722 0 1.339-.257 1.851-.77.513-.512.77-1.137.77-1.874 0-.722-.257-1.339-.77-1.851a2.523 2.523 0 00-1.85-.77zm-4.158 2.62c0-1.153.404-2.135 1.214-2.944.81-.81 1.79-1.214 2.945-1.214 1.153 0 2.135.405 2.944 1.214.81.81 1.214 1.79 1.214 2.945 0 1.153-.405 2.139-1.214 2.956-.81.818-1.79 1.226-2.944 1.226s-2.136-.408-2.945-1.226c-.81-.817-1.214-1.803-1.214-2.956z" fill="#fff"/></svg>