<svg width="10.406" height="16.239" fill="none" xmlns="http://www.w3.org/2000/svg"><path d="M3.31 11.29v-.26c0-.9.08-1.62.24-2.16.16-.53.39-.97.69-1.3.31-.33.67-.62 1.1-.89.32-.21.61-.42.86-.64.25-.22.45-.47.6-.74.15-.27.23-.57.23-.91 0-.35-.09-.67-.26-.93-.17-.27-.4-.48-.69-.62-.28-.15-.59-.22-.94-.22-.33 0-.65.08-.95.23-.3.14-.54.36-.73.65-.19.28-.3.63-.31 1.05H0C.02 3.52.27 2.67.74 2 1.21 1.33 1.83.83 2.6.5 3.37.16 4.22 0 5.16 0c1.02 0 1.93.16 2.72.5.78.34 1.4.83 1.85 1.46.45.64.67 1.41.67 2.32 0 .6-.1 1.13-.3 1.6-.2.47-.47.88-.83 1.24-.35.35-.77.68-1.26.96-.4.25-.74.5-1 .76s-.45.57-.58.91c-.12.35-.19.77-.19 1.28v.26H3.31zm1.53 4.94c-.52 0-.96-.18-1.32-.54-.36-.36-.54-.8-.54-1.31 0-.5.18-.94.54-1.3.36-.36.8-.54 1.32-.54.49 0 .92.18 1.29.54.37.36.56.8.56 1.3 0 .34-.09.65-.27.94-.17.27-.39.5-.67.67-.28.16-.58.24-.91.24z" fill="#FFF"/></svg>