<svg width="11" height="18" fill="none" xmlns="http://www.w3.org/2000/svg"><path d="M3.641 12.256v-.263c.005-.901.085-1.62.24-2.155.16-.536.39-.968.695-1.298.304-.33.67-.628 1.097-.896.32-.206.605-.42.857-.642.253-.221.454-.466.603-.733.15-.273.224-.577.224-.912 0-.356-.085-.667-.255-.935-.17-.268-.399-.474-.687-.618a2.047 2.047 0 00-.943-.216c-.335 0-.652.074-.95.224-.299.144-.544.36-.734.649-.19.283-.294.636-.31 1.058H.328c.025-1.03.273-1.88.741-2.55A4.248 4.248 0 012.93 1.464c.773-.335 1.625-.502 2.557-.502 1.025 0 1.932.17 2.72.51.788.335 1.406.821 1.854 1.46.448.639.672 1.409.672 2.31 0 .603-.1 1.138-.301 1.607a3.915 3.915 0 01-.827 1.236 6.404 6.404 0 01-1.259.966 5.107 5.107 0 00-1.004.757c-.258.263-.451.566-.58.912-.123.345-.188.77-.193 1.274v.263H3.641zm1.53 4.944c-.515 0-.956-.18-1.321-.54a1.777 1.777 0 01-.533-1.314 1.743 1.743 0 01.533-1.298c.365-.36.806-.54 1.32-.54.49 0 .92.18 1.29.54.372.36.56.793.565 1.298-.005.34-.095.652-.27.935-.17.278-.395.502-.673.672a1.756 1.756 0 01-.911.247z" fill="#fff"/></svg>