<svg width="26" height="25" fill="none" xmlns="http://www.w3.org/2000/svg"><g clip-path="url(#clip0_2295_2089)"><path d="M1.46 4.017h13.341a.74.74 0 01.541.229.74.74 0 01.229.54.74.74 0 01-.229.541.74.74 0 01-.54.229H1.46a.74.74 0 01-.54-.229.74.74 0 01-.23-.54.74.74 0 01.23-.541.74.74 0 01.54-.229zm10 8.99c0 1.219.429 2.252 1.286 3.102.858.85 1.887 1.274 3.09 1.274a4.324 4.324 0 003.1-1.274 4.324 4.324 0 001.274-3.101c0-1.202-.424-2.232-1.274-3.09-.85-.857-1.883-1.285-3.1-1.285-1.203 0-2.232.428-3.09 1.286-.857.857-1.286 1.887-1.286 3.089zm10.289 0c0 .69-.109 1.339-.325 1.948a5.936 5.936 0 01-.901 1.658l3.029 3.005c.144.16.216.345.216.553a.803.803 0 01-.216.553.803.803 0 01-.553.216.803.803 0 01-.553-.216l-3.005-3.029a5.936 5.936 0 01-1.659.902 5.775 5.775 0 01-1.947.324 5.87 5.87 0 01-2.308-.456 5.938 5.938 0 01-1.862-1.263 6.202 6.202 0 01-1.287-1.887 5.871 5.871 0 01-.456-2.307c0-.818.152-1.587.456-2.308a6.293 6.293 0 013.15-3.149 5.87 5.87 0 012.307-.457 5.87 5.87 0 012.308.457c.721.32 1.35.75 1.887 1.286a5.941 5.941 0 011.262 1.863c.304.721.457 1.49.457 2.308zM.69 10.94a.74.74 0 00.228.541.74.74 0 00.541.229h4.11a.74.74 0 00.542-.229.74.74 0 00.228-.54.74.74 0 00-.228-.541.739.739 0 00-.541-.229H1.46a.74.74 0 00-.542.229.74.74 0 00-.228.54zm.77 5.385h6.153a.74.74 0 01.54.228.74.74 0 01.23.541.74.74 0 01-.23.541.739.739 0 01-.54.228H1.46a.74.74 0 01-.54-.228.74.74 0 01-.23-.54.74.74 0 01.23-.542.74.74 0 01.54-.228z" fill="#fff"/></g><defs><clipPath id="clip0_2295_2089"><path fill="#fff" transform="matrix(1 0 0 -1 .692 24.871)" d="M0 0h24.615v24.615H0z"/></clipPath></defs></svg>