<svg width="24" height="17" fill="none" xmlns="http://www.w3.org/2000/svg"><path d="M1.46.018h13.341a.74.74 0 01.541.228.74.74 0 01.229.541.74.74 0 01-.229.54.74.74 0 01-.54.23H1.46a.74.74 0 01-.54-.23.74.74 0 01-.23-.54.74.74 0 01.23-.54.74.74 0 01.54-.23zm10 8.99c0 1.218.429 2.252 1.286 3.101.858.85 1.887 1.274 3.09 1.274a4.326 4.326 0 003.1-1.274 4.324 4.324 0 001.274-3.101c0-1.202-.424-2.231-1.274-3.089-.85-.857-1.883-1.286-3.1-1.286-1.203 0-2.232.429-3.09 1.286-.857.858-1.286 1.887-1.286 3.09zm10.289 0c0 .69-.109 1.338-.325 1.947a5.935 5.935 0 01-.901 1.659l3.029 3.005c.144.16.216.344.216.553a.803.803 0 01-.216.553.803.803 0 01-.553.216.803.803 0 01-.553-.216l-3.005-3.03a5.938 5.938 0 01-1.659.902 5.775 5.775 0 01-1.947.325 5.872 5.872 0 01-2.308-.457 5.938 5.938 0 01-1.862-1.262 6.202 6.202 0 01-1.287-1.887 5.87 5.87 0 01-.456-2.308c0-.817.152-1.586.456-2.307a6.293 6.293 0 013.15-3.15 5.87 5.87 0 012.307-.456c.817 0 1.587.152 2.308.456.721.321 1.35.75 1.887 1.287A5.94 5.94 0 0121.292 6.7c.304.72.457 1.49.457 2.307zM.69 6.941a.74.74 0 00.228.54.74.74 0 00.541.23h4.11a.74.74 0 00.542-.23.74.74 0 00.228-.54.74.74 0 00-.228-.54.74.74 0 00-.541-.23H1.46a.74.74 0 00-.542.229.74.74 0 00-.228.54zm.77 5.385h6.153a.74.74 0 01.54.228.74.74 0 01.23.54.74.74 0 01-.23.542.739.739 0 01-.54.228H1.46a.74.74 0 01-.54-.228.74.74 0 01-.23-.541.74.74 0 01.23-.541.74.74 0 01.54-.229z" fill="#fff"/></svg>