<svg xmlns="http://www.w3.org/2000/svg"><style>:root svg:not(:target){display:none}</style>

<svg id="icon-close-copy"><line y1="-0.75" x2="24.7577" y2="-0.75" transform="matrix(0.686589 -0.727046 0.686589 0.727046 2.00171 20)" stroke-width="1.5" ></line><line y1="-0.75" x2="24.7577" y2="-0.75" transform="matrix(0.686589 0.727046 -0.686589 0.727046 1 2)" stroke-width="1.5" ></line></svg>

<svg id="icon-close"><line y1="-0.75" x2="24.7577" y2="-0.75" transform="matrix(0.686589 -0.727046 0.686589 0.727046 2.00171 20)" stroke="black" stroke-width="1.5"></line><line y1="-0.75" x2="24.7577" y2="-0.75" transform="matrix(0.686589 0.727046 -0.686589 0.727046 1 2)" stroke="black" stroke-width="1.5"></line></svg>

<svg id="icon-bell"><path d="M16 7C16 5.4087 15.3679 3.88258 14.2426 2.75736C13.1174 1.63214 11.5913 1 10 1C8.4087 1 6.88258 1.63214 5.75736 2.75736C4.63214 3.88258 4 5.4087 4 7C4 12.7489 1.97652 15.1254 1.25323 15.7912C1.18043 15.8582 1.23134 16 1.33028 16H18.6697C18.7687 16 18.8196 15.8582 18.7468 15.7912C18.0235 15.1254 16 12.7489 16 7Z" stroke-width="2" stroke-linecap="round" stroke-linejoin="round"/></svg>

<svg id='icon-comment'><path d="M21 11.5a8.38 8.38 0 0 1-.9 3.8 8.5 8.5 0 0 1-7.6 4.7 8.379 8.379 0 0 1-3.8-.9L3 21l1.9-5.7a8.38 8.38 0 0 1-.9-3.8 8.5 8.5 0 0 1 4.7-7.6 8.38 8.38 0 0 1 3.8-.9h.5a8.48 8.48 0 0 1 8 8v.5Z" stroke-width="2" stroke-linecap="round" stroke-linejoin="round"/></svg>

<svg id='heart-background' viewBox="0 0 1024 1024"><path d="M512 896a42.667 42.667 0 01-30.293-12.373L150.187 551.68a224.427 224.427 0 010-315.733 223.573 223.573 0 01315.733 0l46.08 46.08 46.08-46.08a223.573 223.573 0 01315.733 0 224.427 224.427 0 010 315.733l-331.52 331.947A42.667 42.667 0 01512 896z"/></svg>
<svg id='icon-basket'><path d="M14.166 18a1 1 0 001-1v-2a1 1 0 10-2 0v2a1 1 0 001 1zm-4 0a1 1 0 001-1v-2a1 1 0 10-2 0v2a1 1 0 001 1zm9-12h-1.38l-1.73-3.45a.999.999 0 10-1.78.9L15.546 6h-6.76l1.27-2.55a1 1 0 00-1.78-.9L6.547 6h-1.38a3 3 0 00-.92 5.84l.74 7.46a3 3 0 003 2.7h8.38a3 3 0 003-2.7l.74-7.46a3 3 0 00-.94-5.84zm-1.81 13.1a1 1 0 01-1 .9h-8.38a1 1 0 01-1-.9l-.71-7.1h11.8l-.71 7.1zm1.81-9.1h-14a1 1 0 110-2h14a1 1 0 110 2z" fill="#fff"/></svg>


<svg id="icon-heart-border"><path d="M0 7.392C0 6.39.17 5.447.51 4.56c.34-.888.812-1.671 1.416-2.351A6.822 6.822 0 014.05.595 6.102 6.102 0 016.712 0c1.02 0 1.968.231 2.846.694a6.818 6.818 0 012.223 1.855A6.819 6.819 0 0114.004.694 6.014 6.014 0 0116.851 0c.944 0 1.831.198 2.662.595.811.396 1.52.934 2.124 1.614a7.585 7.585 0 011.416 2.35c.34.888.51 1.832.51 2.833 0 .811-.137 1.595-.411 2.35a11.63 11.63 0 01-1.062 2.18c-.434.718-.94 1.398-1.515 2.04a36.421 36.421 0 01-1.77 1.84 32.81 32.81 0 01-3.724 3.045c-1.237.86-2.176 1.477-2.818 1.855a.893.893 0 01-.963 0 75.797 75.797 0 01-2.818-1.869 31.63 31.63 0 01-3.724-3.03 36.461 36.461 0 01-1.77-1.841 13.584 13.584 0 01-1.515-2.04A11.63 11.63 0 01.41 9.743 6.845 6.845 0 010 7.392zm6.712-5.58c-1.303 0-2.445.534-3.427 1.6-.982 1.067-1.473 2.394-1.473 3.98 0 .566.104 1.151.312 1.755.208.605.51 1.218.906 1.841.378.604.822 1.2 1.331 1.785A27.99 27.99 0 006.004 14.5a32.498 32.498 0 003.158 2.591c1.066.765 1.94 1.355 2.62 1.77.679-.415 1.552-1.005 2.619-1.77a32.5 32.5 0 003.158-2.591 21.56 21.56 0 001.642-1.713 14.94 14.94 0 001.331-1.799 8.734 8.734 0 00.907-1.84c.207-.605.311-1.19.311-1.756 0-1.586-.49-2.913-1.473-3.98-.981-1.066-2.124-1.6-3.426-1.6-.888 0-1.714.255-2.478.765a5.044 5.044 0 00-1.77 2.068.794.794 0 01-.34.382.967.967 0 01-.963 0 .794.794 0 01-.34-.382 5.045 5.045 0 00-1.77-2.068 4.382 4.382 0 00-2.478-.764z"/></svg>

</svg>