<svg xmlns="http://www.w3.org/2000/svg">
  <style>
    :root svg:not(:target) {
      display: none
    }
  </style><svg fill="none" id="content_email-logo" viewBox="0 0 28 22">
    <path
      d="M13.516 4.566c2.137 0 4.152.776 5.628 1.99v.003c0-.583.478-1.024 1.14-1.024h.168c1.043 0 1.253.807 1.253 1.061l.004 9.054c-.073.594.748.9 1.204.52 1.772-1.494 3.895-7.682-1.103-11.265C17.148 1.56 10.89 2.113 7.564 3.99c-3.536 2.001-5.796 6.42-3.6 10.574 2.397 4.528 9.25 5.879 13.33 4.532 2.065-.683 3.017 1.6.87 2.347-3.234 1.13-12.25 1.015-16.46-4.956C-1.14 12.453-.99 5.357 6.559 1.68c5.769-2.814 13.38-2.035 17.968 1.889 4.795 4.105 4.518 11.787-.163 14.773-2.12 1.358-5.268.037-5.246-1.942l-.023-.645c-1.476 1.198-3.44 1.9-5.578 1.9-4.229 0-7.952-3.05-7.952-6.51 0-3.497 3.723-6.579 7.952-6.579v-.001zm5.319 6.33c-.16-2.534-2.457-4.06-5.233-4.06h-.105c-3.198 0-4.976 2.063-4.976 4.403 0 2.623 2.147 4.28 4.963 4.28 3.144 0 5.208-1.884 5.359-4.112l-.008-.51z"
      fill="#fff"></path>
  </svg><svg fill="none" id="content_logistics-logo" viewBox="0 0 138 18">
    <path
      d="M.39 17.547V1.007h3.384v13.657h6.86v2.883H.39zM26.954 9.277c0 1.804-.33 3.338-.992 4.604-.656 1.265-1.552 2.231-2.688 2.899-1.13.662-2.4.993-3.812.993-1.422 0-2.698-.334-3.829-1.001-1.13-.668-2.023-1.634-2.68-2.9-.656-1.265-.984-2.796-.984-4.595 0-1.803.328-3.338.985-4.603.656-1.265 1.55-2.23 2.68-2.891C16.764 1.115 18.04.78 19.462.78c1.411 0 2.682.334 3.812 1.002 1.136.662 2.032 1.626 2.688 2.89.662 1.266.992 2.8.992 4.604zm-3.43 0c0-1.168-.169-2.153-.507-2.956-.334-.802-.805-1.41-1.415-1.825-.609-.414-1.323-.622-2.14-.622-.818 0-1.532.208-2.141.622-.61.415-1.083 1.023-1.422 1.825-.333.803-.5 1.788-.5 2.956s.167 2.154.5 2.956c.339.802.813 1.41 1.422 1.825.61.415 1.323.622 2.14.622.819 0 1.532-.207 2.142-.622.609-.414 1.08-1.023 1.414-1.825.338-.802.507-1.788.507-2.956zM40.07 6.354a3.686 3.686 0 00-.46-1.042 2.899 2.899 0 00-.727-.775 3.077 3.077 0 00-.97-.493 3.97 3.97 0 00-1.195-.17c-.817 0-1.536.21-2.156.63-.615.42-1.094 1.031-1.438 1.834-.343.796-.515 1.77-.515 2.923 0 1.152.17 2.132.508 2.94.338.807.817 1.424 1.437 1.85.62.42 1.352.63 2.196.63.765 0 1.419-.14 1.96-.42a2.954 2.954 0 001.25-1.204c.292-.517.438-1.128.438-1.834l.688.105H36.96V8.697h6.695v2.083c0 1.454-.297 2.703-.89 3.748a6.162 6.162 0 01-2.454 2.406c-1.041.56-2.234.84-3.578.84-1.5 0-2.818-.342-3.953-1.026-1.136-.689-2.021-1.666-2.657-2.931-.63-1.27-.945-2.778-.945-4.523 0-1.34.188-2.535.563-3.585.38-1.056.911-1.95 1.593-2.682a6.881 6.881 0 012.383-1.671A7.501 7.501 0 0136.664.78c.906 0 1.75.138 2.531.412.781.27 1.474.652 2.078 1.147a6.153 6.153 0 012.235 4.014H40.07zM49.58 1.007v16.54h-3.383V1.007h3.383zM61.044 5.764c-.063-.651-.331-1.157-.805-1.518-.474-.36-1.117-.541-1.93-.541-.552 0-1.018.08-1.398.242-.38.156-.672.374-.875.654a1.61 1.61 0 00-.297.953c-.01.296.05.555.18.775.135.221.32.412.554.574.235.156.505.293.813.412.307.113.635.21.984.29l1.438.356a9.908 9.908 0 011.922.646c.583.27 1.088.6 1.515.993.427.393.758.856.992 1.39.24.532.362 1.143.368 1.833-.005 1.012-.255 1.89-.75 2.632-.49.738-1.198 1.311-2.125 1.72-.922.404-2.034.606-3.337.606-1.291 0-2.416-.204-3.375-.613-.953-.41-1.698-1.015-2.234-1.818-.531-.807-.81-1.806-.836-2.996h3.273c.037.555.19 1.018.461 1.39a2.57 2.57 0 001.102.831c.464.183.987.275 1.57.275.573 0 1.07-.086 1.493-.259.427-.172.758-.412.992-.718.234-.307.352-.66.352-1.058 0-.372-.107-.684-.32-.937-.21-.253-.517-.469-.923-.646a9.153 9.153 0 00-1.476-.485l-1.743-.452c-1.349-.34-2.414-.87-3.195-1.591-.781-.722-1.17-1.693-1.164-2.916-.005-1.001.252-1.876.773-2.624.526-.749 1.248-1.333 2.164-1.753.917-.42 1.959-.63 3.126-.63 1.187 0 2.224.21 3.11.63.89.42 1.583 1.004 2.077 1.753.495.748.75 1.615.766 2.6h-3.242zM66.17 3.89V1.008h13.142v2.884h-4.899v13.656H71.07V3.891h-4.898zM84.86 1.007v16.54h-3.384V1.007h3.383zM101.76 6.798h-3.422a3.54 3.54 0 00-.383-1.22 3.08 3.08 0 00-.742-.92 3.234 3.234 0 00-1.047-.582 3.885 3.885 0 00-1.273-.202c-.828 0-1.55.213-2.164.638-.615.42-1.092 1.034-1.43 1.842-.339.802-.508 1.776-.508 2.923 0 1.18.17 2.17.508 2.972.344.802.823 1.408 1.437 1.817.615.41 1.326.614 2.133.614.453 0 .873-.062 1.258-.186.39-.123.737-.304 1.04-.54a3.09 3.09 0 00.75-.881c.202-.345.343-.738.421-1.18l3.422.017a6.547 6.547 0 01-.664 2.197c-.349.7-.82 1.327-1.414 1.881a6.62 6.62 0 01-2.11 1.309c-.812.317-1.731.476-2.757.476-1.428 0-2.704-.334-3.829-1.001-1.12-.668-2.005-1.634-2.656-2.9-.646-1.265-.969-2.796-.969-4.595 0-1.803.328-3.338.985-4.603.656-1.265 1.546-2.23 2.671-2.891C92.144 1.115 93.409.78 94.816.78a7.96 7.96 0 012.578.404c.797.27 1.502.662 2.117 1.18a6.016 6.016 0 011.5 1.88c.391.744.641 1.595.75 2.553zM112.866 5.764c-.062-.651-.331-1.157-.805-1.518-.474-.36-1.117-.541-1.929-.541-.552 0-1.019.08-1.399.242-.38.156-.672.374-.875.654a1.61 1.61 0 00-.297.953c-.01.296.05.555.18.775.135.221.32.412.555.574.234.156.505.293.812.412.307.113.636.21.985.29l1.437.356a9.899 9.899 0 011.922.646c.583.27 1.089.6 1.516.993.427.393.758.856.992 1.39.24.532.362 1.143.367 1.833-.005 1.012-.255 1.89-.75 2.632-.489.738-1.198 1.311-2.125 1.72-.922.404-2.034.606-3.336.606-1.292 0-2.417-.204-3.375-.613-.953-.41-1.698-1.015-2.235-1.818-.531-.807-.81-1.806-.836-2.996h3.274c.036.555.19 1.018.461 1.39.276.365.643.643 1.102.831.463.183.987.275 1.57.275.573 0 1.07-.086 1.492-.259.427-.172.758-.412.992-.718.235-.307.352-.66.352-1.058 0-.372-.107-.684-.32-.937-.209-.253-.516-.469-.922-.646a9.14 9.14 0 00-1.477-.485l-1.742-.452c-1.349-.34-2.414-.87-3.196-1.591-.781-.722-1.169-1.693-1.164-2.916-.005-1.001.253-1.876.774-2.624.526-.749 1.247-1.333 2.164-1.753.917-.42 1.958-.63 3.125-.63 1.188 0 2.224.21 3.11.63.89.42 1.583 1.004 2.078 1.753.495.748.75 1.615.765 2.6h-3.242zM126.867 1.007l3.226 5.637h.125l3.243-5.637h3.82l-4.883 8.27 4.993 8.27H133.5l-3.282-5.645h-.125l-3.281 5.645h-3.875l5.008-8.27-4.914-8.27h3.836z"
      fill="#fff"></path>
  </svg><svg fill="none" id="content_telegram-logo" viewBox="0 0 23 20">
    <path
      d="M21.448.132L1.074 8.277c-1.39.58-1.382 1.384-.255 1.742l5.23 1.692 12.103-7.917c.572-.361 1.095-.167.665.229l-9.805 9.175H9.01l.002.001-.36 5.59c.528 0 .761-.251 1.057-.548l2.541-2.561 5.285 4.047c.974.556 1.674.27 1.916-.935l3.47-16.952c.355-1.476-.544-2.145-1.473-1.708z"
      fill="#fff"></path>
  </svg><svg fill="none" id="content_vkontakte-logo" viewBox="0 0 26 16">
    <path fill-rule="evenodd" clip-rule="evenodd"
      d="M25.404 1.083c.18-.624 0-1.083-.862-1.083H21.7c-.724 0-1.058.397-1.239.834 0 0-1.446 3.653-3.494 6.025-.663.688-.964.907-1.326.907-.181 0-.453-.219-.453-.844V1.083c0-.75-.2-1.083-.802-1.083H9.913c-.451 0-.723.347-.723.678 0 .71 1.024.874 1.13 2.872v4.34c0 .952-.166 1.125-.528 1.125-.964 0-3.31-3.67-4.702-7.869C4.82.33 4.548 0 3.82 0H.976C.162 0 0 .397 0 .834c0 .78.964 4.652 4.49 9.773C6.841 14.104 10.15 16 13.165 16c1.809 0 2.032-.42 2.032-1.146V12.21c0-.842.17-1.01.744-1.01.422 0 1.145.22 2.833 1.905C20.702 15.104 21.019 16 22.105 16h2.844c.812 0 1.22-.42.985-1.253-.257-.827-1.178-2.028-2.4-3.453-.662-.812-1.656-1.686-1.959-2.124-.421-.56-.3-.811 0-1.31 0 0 3.467-5.059 3.828-6.777z"
      fill="#fff"></path>
  </svg><svg fill="none" id="decors_arrow" viewBox="0 0 7 13">
    <path
      d="M.166 12.235a.578.578 0 01-.17-.427c0-.17.057-.312.17-.426L4.94 6.608.166 1.834a.578.578 0 01-.17-.426c0-.17.057-.312.17-.426a.632.632 0 01.436-.17c.164 0 .303.056.417.17l5.21 5.19c.05.064.091.133.123.209a.587.587 0 01.047.227.587.587 0 01-.047.228.863.863 0 01-.124.208l-5.21 5.19a.567.567 0 01-.416.171.633.633 0 01-.436-.17z"
      fill="#fff"></path>
  </svg><svg fill="none" id="decors_basket-icon" viewBox="0 0 21 20">
    <path
      d="M.693 1.25A.74.74 0 01.92.708.74.74 0 011.462.48H2.88a1.824 1.824 0 011.61.986l.53 1.057h14.014c.497 0 .87.213 1.118.637.248.425.252.854.012 1.287l-3.39 5.889a1.748 1.748 0 01-1.538.913H7.52l-1.346 2.164a.283.283 0 000 .276c.048.088.12.133.216.133h11.49a.76.76 0 01.541.216.728.728 0 01.229.553.739.739 0 01-.229.54.739.739 0 01-.54.229H6.39c-.705 0-1.23-.308-1.575-.925-.344-.617-.324-1.23.06-1.84l1.37-2.211-2.403-6.779-.721-1.442a.347.347 0 00-.108-.108.252.252 0 00-.133-.036H1.462a.74.74 0 01-.54-.229.74.74 0 01-.23-.54zM5.62 4.061L7.64 9.71h7.596a.215.215 0 00.108-.036.56.56 0 00.109-.084l3.149-5.53H5.62zm3.029 14.11c0 .433-.153.798-.457 1.094a1.498 1.498 0 01-1.082.445c-.433 0-.797-.148-1.094-.445a1.486 1.486 0 01-.444-1.093c0-.433.148-.798.444-1.094a1.487 1.487 0 011.094-.445c.417 0 .777.148 1.082.445.304.296.457.66.457 1.093zm7.692 1.539c.417 0 .777-.148 1.082-.445.304-.296.456-.66.456-1.093 0-.433-.152-.798-.456-1.094a1.498 1.498 0 00-1.082-.445c-.433 0-.797.148-1.094.445a1.487 1.487 0 00-.445 1.093c0 .433.149.798.445 1.094.297.297.661.445 1.094.445z"
      fill="#fff"></path>
  </svg><svg fill="none" id="decors_burger-icon" viewBox="0 0 26 22">
    <g clip-path="url(#decors_burger-icon_0)" fill="#fff">
      <path d="M0 0h26v2H0zM0 10h26v2H0zM0 20h26v2H0v-2z"></path>
    </g>
    <defs>
      <clipPath id="decors_burger-icon_0">
        <path fill="#fff" d="M0 0h26v22H0z"></path>
      </clipPath>
    </defs>
  </svg><svg fill="none" id="decors_check-mark-icon" viewBox="0 0 10 11">
    <mask id="decors_check-mark-icon_0" fill="#fff">
      <path d="M6.96.97l2.676 2.677-6.717 6.717L.242 7.688 6.96.97z"></path>
    </mask>
    <path
      d="M2.919 10.364l-1.68 1.68 1.68 1.679 1.68-1.68-1.68-1.679zm5.038-8.397L1.24 8.685l3.358 3.359 6.718-6.718-3.359-3.359zM4.598 8.685L1.922 6.008l-3.359 3.36 2.677 2.676 3.358-3.36z"
      fill="#fff" mask="url(#decors_check-mark-icon_0)"></path>
  </svg><svg fill="none" id="decors_comment-icon" viewBox="0 0 24 24">
    <g clip-path="url(#decors_comment-icon_0)">
      <path
        d="M21 11.5a8.38 8.38 0 01-.9 3.8 8.5 8.5 0 01-7.6 4.7 8.379 8.379 0 01-3.8-.9L3 21l1.9-5.7a8.38 8.38 0 01-.9-3.8 8.5 8.5 0 014.7-7.6 8.38 8.38 0 013.8-.9h.5a8.48 8.48 0 018 8v.5z"
        stroke="#fff" stroke-width="2" stroke-linecap="round" stroke-linejoin="round"></path>
    </g>
    <defs>
      <clipPath id="decors_comment-icon_0">
        <path fill="#fff" d="M0 0h24v24H0z"></path>
      </clipPath>
    </defs>
  </svg><svg fill="none" id="decors_cross-icon" viewBox="0 0 13 13">
    <path d="M.981 1.227l5.581 5.332 5.581-5.332m0 10.547L6.564 6.44.982 11.774" stroke="#000" stroke-width="1.409">
    </path>
  </svg><svg fill="none" id="decors_exit-icon" viewBox="0 0 27 31">
    <path
      d="M.844 29.547c0 .801.568 1.453 1.265 1.453h17.72c.697 0 1.265-.652 1.265-1.453v-8.235c0-.267-.19-.484-.422-.484-.233 0-.422.217-.422.485v8.234c0 .266-.189.484-.422.484H2.11c-.232 0-.421-.218-.421-.484V1.453c0-.266.189-.484.421-.484h17.72c.232 0 .421.218.421.484v8.235c0 .267.189.484.422.484.233 0 .422-.217.422-.485V1.454C21.094.652 20.526 0 19.828 0H2.11C1.412 0 .844.652.844 1.453v28.094z"
      fill="#fff"></path>
    <path
      d="M22.612 19.458c.082.095.19.141.298.141a.398.398 0 00.299-.141l2.726-3.13a.537.537 0 000-.685l-2.726-3.13a.385.385 0 00-.596 0 .537.537 0 000 .685l2.005 2.302H12.656c-.233 0-.422.217-.422.485 0 .267.19.484.422.484h11.962l-2.006 2.304a.537.537 0 000 .685z"
      fill="#fff"></path>
  </svg><svg fill="none" id="decors_filters-icon" viewBox="0 0 20 21">
    <g clip-path="url(#decors_filters-icon_0)">
      <path
        d="M4.959 5.342c-.434 0-.801.153-1.101.46-.3.306-.45.676-.45 1.11 0 .434.15.804.45 1.11.3.306.667.46 1.1.46.434 0 .805-.154 1.11-.46.307-.306.46-.676.46-1.11 0-.434-.153-.804-.46-1.11a1.513 1.513 0 00-1.11-.46zm-2.719.957c.14-.625.463-1.145.967-1.56a2.676 2.676 0 011.752-.622 2.68 2.68 0 011.98.823c.543.549.814 1.206.814 1.972 0 .778-.27 1.439-.813 1.981a2.696 2.696 0 01-1.981.814 2.676 2.676 0 01-1.752-.623 2.752 2.752 0 01-.967-1.56H.613A.605.605 0 010 6.912c0-.166.061-.31.182-.431a.589.589 0 01.431-.182H2.24zm6.47.613c0-.166.061-.31.182-.431a.589.589 0 01.431-.182h6.528c.166 0 .31.06.43.182a.589.589 0 01.183.43c0 .167-.061.31-.182.431a.589.589 0 01-.431.182H9.323a.589.589 0 01-.43-.182.589.589 0 01-.182-.43zm2.795 5.245c-.433 0-.804.153-1.11.46-.306.306-.46.676-.46 1.11 0 .434.154.804.46 1.11.306.306.677.46 1.11.46.434 0 .801-.154 1.101-.46.3-.306.45-.676.45-1.11 0-.434-.15-.804-.45-1.11-.3-.307-.667-.46-1.1-.46zm-2.794 1.57c0-.779.27-1.44.813-1.982a2.696 2.696 0 011.982-.813c.663 0 1.247.207 1.751.622.504.415.827.935.967 1.56h1.627a.605.605 0 01.613.613c0 .165-.061.31-.182.43a.589.589 0 01-.431.182h-1.627a2.751 2.751 0 01-.967 1.56 2.676 2.676 0 01-1.752.623 2.68 2.68 0 01-1.98-.824 2.706 2.706 0 01-.814-1.971zm-8.71 0a.605.605 0 01.613-.613H7.14a.605.605 0 01.612.613c0 .165-.06.31-.181.43a.589.589 0 01-.431.182H.613a.589.589 0 01-.43-.182.589.589 0 01-.183-.43z"
        fill="#000"></path>
    </g>
    <defs>
      <clipPath id="decors_filters-icon_0">
        <path fill="#fff" transform="matrix(1 0 0 -1 0 20.186)" d="M0 0h19.603v19.603H0z"></path>
      </clipPath>
    </defs>
  </svg><svg fill="none" id="decors_heart-border-icon" viewBox="0 0 23 21">
    <path
      d="M0 7.447c0-1.008.166-1.96.498-2.853A7.694 7.694 0 011.88 2.226 6.686 6.686 0 013.953.599C4.764.2 5.63 0 6.552 0c.995 0 1.921.233 2.778.699a6.71 6.71 0 012.17 1.869A6.71 6.71 0 0113.67.699 5.723 5.723 0 0116.448 0c.922 0 1.788.2 2.599.6.792.399 1.483.94 2.073 1.626a7.694 7.694 0 011.382 2.368c.332.894.498 1.845.498 2.853 0 .818-.134 1.607-.4 2.368-.268.761-.614 1.493-1.038 2.197a13.667 13.667 0 01-1.479 2.055 36.277 36.277 0 01-1.727 1.854 32.258 32.258 0 01-3.635 3.067c-1.208.866-2.124 1.489-2.751 1.87a.853.853 0 01-.94 0 73.806 73.806 0 01-2.75-1.884 31.096 31.096 0 01-3.636-3.053 36.26 36.26 0 01-1.728-1.854 13.665 13.665 0 01-1.478-2.055A11.879 11.879 0 01.4 9.815C.134 9.055 0 8.265 0 7.447zm6.552-5.62c-1.272 0-2.387.536-3.345 1.611-.959 1.075-1.438 2.411-1.438 4.009 0 .57.102 1.16.304 1.769a8.92 8.92 0 00.885 1.855c.369.608.802 1.207 1.3 1.797.497.59 1.031 1.17 1.603 1.74 1.013.97 2.04 1.841 3.082 2.611 1.041.77 1.893 1.365 2.557 1.784.664-.419 1.516-1.013 2.557-1.784a31.958 31.958 0 003.082-2.61 21.432 21.432 0 001.604-1.726c.497-.6.93-1.204 1.3-1.812a8.92 8.92 0 00.884-1.855 5.587 5.587 0 00.304-1.769c0-1.598-.48-2.934-1.438-4.009-.958-1.075-2.073-1.612-3.345-1.612-.866 0-1.672.257-2.419.77-.746.514-1.322 1.208-1.727 2.083a.792.792 0 01-.332.386.921.921 0 01-.94 0 .792.792 0 01-.332-.386c-.405-.875-.981-1.569-1.727-2.083-.747-.513-1.553-.77-2.42-.77z"
      fill="#fff"></path>
  </svg><svg fill="none" id="decors_home-icon" viewBox="0 0 18 20">
    <path
      d="M7.837 2.292l-5.12 2.885a2.297 2.297 0 00-.866.841 2.227 2.227 0 00-.313 1.154v8.99c0 .626.225 1.166.674 1.623.448.457.993.685 1.634.685H5.12v-5.384c0-.786.277-1.455.83-2.008a2.706 2.706 0 011.983-.829H10c.77 0 1.43.277 1.983.83.553.552.83 1.221.83 2.007v5.384h1.273c.642 0 1.186-.228 1.635-.685.449-.457.673-.997.673-1.622v-8.99c0-.417-.104-.802-.312-1.155a2.297 2.297 0 00-.866-.84l-5.12-2.886a2.185 2.185 0 00-1.13-.312c-.4 0-.777.104-1.13.312zm3.437 16.178v-5.384c0-.369-.124-.677-.373-.926a1.228 1.228 0 00-.901-.372H7.933c-.353 0-.653.124-.902.372a1.257 1.257 0 00-.372.926v5.384h4.615zM5.12 20.01H3.846c-1.074 0-1.983-.377-2.728-1.13A3.724 3.724 0 010 16.163v-8.99c0-.69.172-1.335.517-1.936a3.656 3.656 0 011.43-1.406L7.091.946A3.657 3.657 0 018.966.441c.673 0 1.298.169 1.875.505l5.145 2.885a3.657 3.657 0 011.43 1.406c.344.601.517 1.246.517 1.935v8.99a3.724 3.724 0 01-1.118 2.717c-.745.753-1.655 1.13-2.729 1.13H5.12z"
      fill="#fff"></path>
  </svg><svg fill="none" id="decors_minus" viewBox="0 0 16 5">
    <path d="M15.806.17v4.405H.366V.17h15.44z" fill="#fff"></path>
  </svg><svg fill="none" id="decors_notification-icon" viewBox="0 0 24 24">
    <path
      d="M18 8A6 6 0 106 8c0 5.749-2.023 8.125-2.747 8.791-.073.067-.022.209.077.209h17.34c.099 0 .15-.142.077-.209C20.023 16.125 18 13.75 18 8zM13.73 21a1.999 1.999 0 01-3.46 0"
      stroke="#fff" stroke-width="2" stroke-linecap="round" stroke-linejoin="round"></path>
  </svg><svg fill="none" id="decors_plus" viewBox="0 0 14 15">
    <path d="M5.71 14.19V.807h2.664v13.385H5.71zM.356 8.826V6.162h13.384v2.663H.355z" fill="#fff"></path>
  </svg><svg viewBox="0 0 20 20" fill="none" id="decors_profile-icon">
    <path
      d="M10 1.53846C8.83013 1.53846 7.73237 1.76282 6.70673 2.21154C5.68109 2.64423 4.78365 3.24519 4.01442 4.01442C3.24519 4.78365 2.64423 5.68109 2.21154 6.70673C1.76282 7.73237 1.53846 8.83013 1.53846 10C1.53846 11.0256 1.71074 11.9992 2.05529 12.9207C2.39984 13.8421 2.8766 14.6715 3.48558 15.4087C4.22276 14.6394 5.11218 13.9824 6.15385 13.4375C7.19551 12.8926 8.47756 12.6202 10 12.6202C11.5224 12.6202 12.8045 12.8926 13.8462 13.4375C14.8878 13.9824 15.7772 14.6394 16.5144 15.4087C17.1234 14.6715 17.6002 13.8421 17.9447 12.9207C18.2893 11.9992 18.4615 11.0256 18.4615 10C18.4615 8.83013 18.2372 7.73237 17.7885 6.70673C17.3558 5.68109 16.7548 4.78365 15.9856 4.01442C15.2163 3.24519 14.3189 2.64423 13.2933 2.21154C12.2676 1.76282 11.1699 1.53846 10 1.53846ZM15.4327 16.4904C14.7917 15.8333 14.0425 15.2804 13.1851 14.8317C12.3277 14.383 11.266 14.1587 10 14.1587C8.73397 14.1587 7.67228 14.383 6.8149 14.8317C5.95753 15.2804 5.20833 15.8333 4.56731 16.4904C5.30449 17.0994 6.13782 17.5801 7.06731 17.9327C7.9968 18.2853 8.97436 18.4615 10 18.4615C11.0256 18.4615 12.0032 18.2853 12.9327 17.9327C13.8622 17.5801 14.6955 17.0994 15.4327 16.4904ZM0 10C0 8.62179 0.264423 7.32372 0.793269 6.10577C1.30609 4.88782 2.01522 3.82612 2.92067 2.92067C3.82612 2.01522 4.88782 1.30609 6.10577 0.793268C7.32372 0.264423 8.62179 0 10 0C11.3782 0 12.6763 0.264423 13.8942 0.793268C15.1122 1.30609 16.1739 2.01522 17.0793 2.92067C17.9848 3.82612 18.6939 4.88782 19.2067 6.10577C19.7356 7.32372 20 8.62179 20 10C20 11.3782 19.7356 12.6763 19.2067 13.8942C18.6939 15.1122 17.9848 16.1739 17.0793 17.0793C16.1739 17.9848 15.1122 18.6939 13.8942 19.2067C12.6763 19.7356 11.3782 20 10 20C8.62179 20 7.32372 19.7356 6.10577 19.2067C4.88782 18.6939 3.82612 17.9848 2.92067 17.0793C2.01522 16.1739 1.30609 15.1122 0.793269 13.8942C0.264423 12.6763 0 11.3782 0 10ZM10 5.43269C9.27885 5.43269 8.66186 5.6891 8.14904 6.20192C7.63622 6.71474 7.37981 7.33173 7.37981 8.05288C7.37981 8.79006 7.63622 9.41506 8.14904 9.92788C8.66186 10.4407 9.27885 10.6971 10 10.6971C10.7212 10.6971 11.3381 10.4407 11.851 9.92788C12.3638 9.41506 12.6202 8.79006 12.6202 8.05288C12.6202 7.33173 12.3638 6.71474 11.851 6.20192C11.3381 5.6891 10.7212 5.43269 10 5.43269ZM5.84135 8.05288C5.84135 6.89904 6.24599 5.91747 7.05529 5.10817C7.86458 4.29888 8.84615 3.89423 10 3.89423C11.1538 3.89423 12.1354 4.29888 12.9447 5.10817C13.754 5.91747 14.1587 6.89904 14.1587 8.05288C14.1587 9.20673 13.754 10.1923 12.9447 11.0096C12.1354 11.8269 11.1538 12.2356 10 12.2356C8.84615 12.2356 7.86458 11.8269 7.05529 11.0096C6.24599 10.1923 5.84135 9.20673 5.84135 8.05288Z"
      fill="white"></path>
  </svg><svg viewBox="0 0 11 18" fill="none" id="decors_question-icon">
    <path
      d="M3.641 12.256V11.9933C3.64615 11.092 3.72598 10.3735 3.8805 9.83781C4.04016 9.30216 4.27194 8.86952 4.57582 8.53989C4.87969 8.21025 5.24538 7.91153 5.67287 7.6437C5.9922 7.43768 6.27805 7.22394 6.53043 7.00246C6.7828 6.78099 6.98367 6.53635 7.13303 6.26852C7.2824 5.99554 7.35708 5.69166 7.35708 5.35688C7.35708 5.0015 7.2721 4.68989 7.10213 4.42207C6.93217 4.15424 6.70297 3.94822 6.41454 3.80401C6.13126 3.65979 5.81708 3.58769 5.472 3.58769C5.13722 3.58769 4.82046 3.66237 4.52174 3.81173C4.22301 3.95595 3.97836 4.17227 3.78779 4.4607C3.59722 4.74397 3.49421 5.09678 3.47876 5.51912H0.32666C0.352413 4.48902 0.599636 3.63919 1.06833 2.96963C1.53703 2.29492 2.15766 1.79274 2.93023 1.46311C3.70281 1.12833 4.55521 0.960938 5.48745 0.960938C6.5124 0.960938 7.41889 1.1309 8.20691 1.47084C8.99494 1.80562 9.613 2.29234 10.0611 2.931C10.5092 3.56966 10.7332 4.33966 10.7332 5.241C10.7332 5.8436 10.6328 6.37925 10.4319 6.84795C10.2362 7.31149 9.96066 7.72353 9.60527 8.08407C9.24989 8.43945 8.83012 8.76136 8.34598 9.04978C7.93909 9.29186 7.6043 9.54423 7.34163 9.80691C7.08411 10.0696 6.89096 10.3735 6.7622 10.7185C6.63859 11.0636 6.57421 11.4885 6.56906 11.9933V12.256H3.641ZM5.1707 17.2004C4.65565 17.2004 4.21528 17.0202 3.8496 16.6596C3.48906 16.294 3.31137 15.8562 3.31652 15.3463C3.31137 14.8415 3.48906 14.4089 3.8496 14.0483C4.21528 13.6878 4.65565 13.5075 5.1707 13.5075C5.65999 13.5075 6.09006 13.6878 6.4609 14.0483C6.83173 14.4089 7.01972 14.8415 7.02487 15.3463C7.01972 15.6862 6.92959 15.9978 6.75447 16.2811C6.58451 16.5592 6.36046 16.7832 6.08233 16.9532C5.80421 17.118 5.50033 17.2004 5.1707 17.2004Z"
      fill="white"></path>
  </svg><svg fill="none" id="decors_search-catalog-icon" viewBox="0 0 26 25">
    <g clip-path="url(#decors_search-catalog-icon_0)">
      <path
        d="M1.46 4.017h13.341a.74.74 0 01.541.229.74.74 0 01.229.54.74.74 0 01-.229.541.74.74 0 01-.54.229H1.46a.74.74 0 01-.54-.229.74.74 0 01-.23-.54.74.74 0 01.23-.541.74.74 0 01.54-.229zm10 8.99c0 1.219.429 2.252 1.286 3.102.858.85 1.887 1.274 3.09 1.274a4.324 4.324 0 003.1-1.274 4.324 4.324 0 001.274-3.101c0-1.202-.424-2.232-1.274-3.09-.85-.857-1.883-1.285-3.1-1.285-1.203 0-2.232.428-3.09 1.286-.857.857-1.286 1.887-1.286 3.089zm10.289 0c0 .69-.109 1.339-.325 1.948a5.936 5.936 0 01-.901 1.658l3.029 3.005c.144.16.216.345.216.553a.803.803 0 01-.216.553.803.803 0 01-.553.216.803.803 0 01-.553-.216l-3.005-3.029a5.936 5.936 0 01-1.659.902 5.775 5.775 0 01-1.947.324 5.87 5.87 0 01-2.308-.456 5.938 5.938 0 01-1.862-1.263 6.202 6.202 0 01-1.287-1.887 5.871 5.871 0 01-.456-2.307c0-.818.152-1.587.456-2.308a6.293 6.293 0 013.15-3.149 5.87 5.87 0 012.307-.457 5.87 5.87 0 012.308.457c.721.32 1.35.75 1.887 1.286a5.941 5.941 0 011.262 1.863c.304.721.457 1.49.457 2.308zM.69 10.94a.74.74 0 00.228.541.74.74 0 00.541.229h4.11a.74.74 0 00.542-.229.74.74 0 00.228-.54.74.74 0 00-.228-.541.739.739 0 00-.541-.229H1.46a.74.74 0 00-.542.229.74.74 0 00-.228.54zm.77 5.385h6.153a.74.74 0 01.54.228.74.74 0 01.23.541.74.74 0 01-.23.541.739.739 0 01-.54.228H1.46a.74.74 0 01-.54-.228.74.74 0 01-.23-.54.74.74 0 01.23-.542.74.74 0 01.54-.228z"
        fill="#fff"></path>
    </g>
    <defs>
      <clipPath id="decors_search-catalog-icon_0">
        <path fill="#fff" transform="matrix(1 0 0 -1 .692 24.871)" d="M0 0h24.615v24.615H0z"></path>
      </clipPath>
    </defs>
  </svg><svg fill="none" id="decors_search-icon" viewBox="0 0 26 25">
    <path
      d="M17.713 17.552L24 23.822m-3.592-12.76c0 2.433-.97 4.768-2.696 6.489a9.218 9.218 0 01-6.508 2.687 9.218 9.218 0 01-6.508-2.687A9.163 9.163 0 012 11.06c0-2.433.97-4.767 2.696-6.488a9.218 9.218 0 016.508-2.688c2.44 0 4.782.967 6.508 2.688a9.163 9.163 0 012.696 6.489z"
      stroke="#fff" stroke-width="2.053" stroke-miterlimit="10" stroke-linecap="round" stroke-linejoin="round"></path>
  </svg><svg fill="none" id="decors_small-basket-icon" viewBox="0 0 25 24">
    <g clip-path="url(#decors_small-basket-icon_0)">
      <path
        d="M14.166 18a1 1 0 001-1v-2a1 1 0 10-2 0v2a1 1 0 001 1zm-4 0a1 1 0 001-1v-2a1 1 0 10-2 0v2a1 1 0 001 1zm9-12h-1.38l-1.73-3.45a.999.999 0 00-1.914.515 1 1 0 00.135.385L15.546 6h-6.76l1.27-2.55a1 1 0 00-1.78-.9L6.547 6h-1.38a3 3 0 00-.92 5.84l.74 7.46a3 3 0 003 2.7h8.38a3 3 0 003-2.7l.74-7.46a3 3 0 00-.94-5.84zm-1.81 13.1a1 1 0 01-1 .9h-8.38a1 1 0 01-1-.9l-.71-7.1h11.8l-.71 7.1zm1.81-9.1h-14a1 1 0 110-2h14a1 1 0 110 2z"
        fill="#fff"></path>
    </g>
    <defs>
      <clipPath id="decors_small-basket-icon_0">
        <path fill="#fff" transform="translate(.167)" d="M0 0h24v24H0z"></path>
      </clipPath>
    </defs>
  </svg><svg fill="none" id="decors_sorting-icon" viewBox="0 0 15 14">
    <path d="M14.134 1.361H1.19l5.177 6.122v4.233l2.589 1.294V7.483l5.177-6.122z" stroke="#333" stroke-width="1.294"
      stroke-linecap="round" stroke-linejoin="round"></path>
  </svg><svg fill="none" id="decors_trash-icon" viewBox="0 0 18 18">
    <path
      d="M2.25 4.5h13.5M6 4.5V3a1.5 1.5 0 011.5-1.5h3A1.5 1.5 0 0112 3v1.5m2.25 0V15a1.5 1.5 0 01-1.5 1.5h-7.5a1.5 1.5 0 01-1.5-1.5V4.5h10.5zM10.5 8.25v4.5M7.5 8.25v4.5"
      stroke="#000" stroke-width="1.5" stroke-linecap="round" stroke-linejoin="round"></path>
  </svg>
</svg>