<svg width="28" height="22" fill="none" xmlns="http://www.w3.org/2000/svg"><path d="M13.516 4.566c2.137 0 4.152.776 5.628 1.99v.003c0-.583.478-1.024 1.14-1.024h.168c1.043 0 1.253.807 1.253 1.061l.004 9.054c-.073.594.748.9 1.204.52 1.772-1.494 3.895-7.682-1.103-11.265C17.148 1.56 10.89 2.113 7.564 3.99c-3.536 2.001-5.796 6.42-3.6 10.574 2.397 4.528 9.25 5.879 13.33 4.532 2.065-.683 3.017 1.6.87 2.347-3.234 1.13-12.25 1.015-16.46-4.956C-1.14 12.453-.99 5.357 6.559 1.68c5.769-2.814 13.38-2.035 17.968 1.889 4.795 4.105 4.518 11.787-.163 14.773-2.12 1.358-5.268.037-5.246-1.942l-.023-.645c-1.476 1.198-3.44 1.9-5.578 1.9-4.229 0-7.952-3.05-7.952-6.51 0-3.497 3.723-6.579 7.952-6.579v-.001zm5.319 6.33c-.16-2.534-2.457-4.06-5.233-4.06h-.105c-3.198 0-4.976 2.063-4.976 4.403 0 2.623 2.147 4.28 4.963 4.28 3.144 0 5.208-1.884 5.359-4.112l-.008-.51z" fill="#fff"/></svg>