<svg width="180" height="53" fill="none" xmlns="http://www.w3.org/2000/svg"><path d="M173.333 52.5H6.667C3.002 52.5 0 49.545 0 45.937V6.563C0 2.954 3.002 0 6.667 0h166.666C176.998 0 180 2.955 180 6.563v39.374c0 3.608-3.002 6.563-6.667 6.563z" fill="#000"/><path d="M173.333 1.052c3.087 0 5.599 2.472 5.599 5.51v39.376c0 3.038-2.512 5.51-5.599 5.51H6.667c-3.087 0-5.599-2.472-5.599-5.51V6.562c0-3.038 2.512-5.51 5.599-5.51h166.666zm0-1.052H6.667C3.002 0 0 2.955 0 6.563v39.374C0 49.545 3.002 52.5 6.667 52.5h166.666c3.665 0 6.667-2.955 6.667-6.563V6.563C180 2.954 176.998 0 173.333 0z" fill="#A6A6A6"/><path d="M63.223 13.445c0 1.096-.333 1.974-.99 2.629-.755.776-1.738 1.166-2.943 1.166-1.152 0-2.135-.397-2.942-1.18-.808-.794-1.211-1.768-1.211-2.935 0-1.166.403-2.14 1.211-2.928.807-.79 1.79-1.186 2.942-1.186.573 0 1.12.116 1.642.333.52.218.943.513 1.25.878l-.697.692c-.535-.622-1.263-.929-2.195-.929a3.08 3.08 0 00-2.187.871c-.611.585-.918 1.34-.918 2.27 0 .928.307 1.69.918 2.275.619.576 1.347.871 2.187.871.892 0 1.642-.295 2.233-.878.39-.385.612-.917.67-1.596H59.29v-.948h3.873c.047.205.06.403.06.595zm6.145-3.288H65.73v2.493h3.28v.949h-3.28v2.494h3.638v.966H64.7V9.19h4.668v.967zm4.337 6.902h-1.03v-6.902h-2.232V9.19h5.495v.967h-2.233v6.902zm6.21 0V9.19h1.028v7.869h-1.028zm5.586 0H84.48v-6.902h-2.24V9.19h5.501v.967h-2.24v6.902zm12.644-1.012c-.788.796-1.765 1.193-2.93 1.193-1.172 0-2.148-.397-2.937-1.193-.786-.794-1.178-1.768-1.178-2.922 0-1.153.392-2.127 1.178-2.921.789-.796 1.765-1.193 2.937-1.193 1.158 0 2.135.397 2.923 1.199.794.8 1.185 1.769 1.185 2.915 0 1.154-.391 2.128-1.178 2.922zm-5.105-.66c.593.59 1.315.885 2.175.885.853 0 1.582-.295 2.168-.884.592-.59.892-1.345.892-2.263 0-.917-.3-1.673-.892-2.262-.586-.589-1.315-.884-2.168-.884-.86 0-1.582.295-2.175.884-.592.589-.892 1.345-.892 2.262 0 .918.3 1.674.892 2.263zm7.729 1.672V9.19h1.25l3.886 6.12h.045l-.045-1.513V9.19h1.029v7.869h-1.074l-4.07-6.422h-.045l.045 1.52v4.902h-1.021z" fill="#fff" stroke="#fff" stroke-width=".16" stroke-miterlimit="10"/><path d="M90.847 28.55c-3.132 0-5.69 2.346-5.69 5.583 0 3.21 2.558 5.581 5.69 5.581 3.138 0 5.697-2.37 5.697-5.581 0-3.237-2.559-5.583-5.697-5.583zm0 8.966c-1.718 0-3.197-1.396-3.197-3.383 0-2.013 1.478-3.385 3.197-3.385 1.718 0 3.203 1.372 3.203 3.385 0 1.987-1.485 3.383-3.203 3.383zM78.432 28.55c-3.139 0-5.69 2.346-5.69 5.583 0 3.21 2.551 5.581 5.69 5.581 3.136 0 5.69-2.37 5.69-5.581 0-3.237-2.553-5.583-5.69-5.583zm0 8.966c-1.72 0-3.204-1.396-3.204-3.383 0-2.013 1.484-3.385 3.204-3.385 1.718 0 3.197 1.372 3.197 3.385 0 1.987-1.479 3.383-3.197 3.383zm-14.774-7.255v2.372h5.755c-.168 1.326-.618 2.3-1.308 2.98-.84.82-2.148 1.73-4.447 1.73a6.269 6.269 0 01-6.315-6.3 6.27 6.27 0 016.315-6.3c1.915 0 3.309.737 4.337 1.692l1.698-1.672c-1.438-1.351-3.351-2.39-6.035-2.39-4.856 0-8.938 3.89-8.938 8.67 0 4.782 4.082 8.672 8.938 8.672 2.626 0 4.597-.847 6.147-2.435 1.588-1.564 2.083-3.762 2.083-5.537a7.81 7.81 0 00-.13-1.482h-8.1zm60.411 1.84c-.469-1.25-1.914-3.551-4.857-3.551-2.917 0-5.345 2.262-5.345 5.583 0 3.127 2.403 5.581 5.625 5.581 2.605 0 4.108-1.563 4.727-2.474l-1.934-1.268c-.645.929-1.523 1.544-2.793 1.544-1.262 0-2.167-.57-2.747-1.691l7.585-3.09-.261-.635zm-7.734 1.858c-.065-2.152 1.699-3.255 2.962-3.255.99 0 1.83.487 2.11 1.185l-5.072 2.07zm-6.165 5.416h2.494V22.969h-2.494v16.406zm-4.083-9.581h-.083c-.56-.653-1.629-1.244-2.982-1.244-2.84 0-5.437 2.454-5.437 5.601 0 3.129 2.597 5.563 5.437 5.563 1.353 0 2.422-.595 2.982-1.268h.083v.8c0 2.135-1.158 3.282-3.027 3.282-1.523 0-2.468-1.083-2.858-1.993l-2.168.89c.624 1.48 2.28 3.302 5.026 3.302 2.924 0 5.39-1.694 5.39-5.813V28.89h-2.363v.904zm-2.852 7.722c-1.718 0-3.156-1.416-3.156-3.365 0-1.967 1.438-3.403 3.156-3.403 1.694 0 3.029 1.436 3.029 3.403 0 1.95-1.335 3.365-3.029 3.365zm32.507-14.547h-5.963v16.406h2.486v-6.217h3.477c2.762 0 5.47-1.967 5.47-5.095 0-3.127-2.715-5.094-5.47-5.094zm.065 7.907h-3.542v-5.625h3.542a2.869 2.869 0 012.917 2.812c0 1.27-1.06 2.813-2.917 2.813zm15.372-2.357c-1.797 0-3.666.78-4.434 2.512l2.207.91c.475-.91 1.348-1.206 2.272-1.206 1.29 0 2.598.763 2.618 2.11v.172c-.45-.256-1.413-.635-2.598-.635-2.377 0-4.799 1.288-4.799 3.692 0 2.198 1.947 3.614 4.135 3.614 1.674 0 2.597-.743 3.177-1.608h.085v1.269h2.402v-6.294c0-2.909-2.207-4.536-5.065-4.536zm-.3 8.99c-.814 0-1.947-.397-1.947-1.39 0-1.269 1.413-1.756 2.637-1.756 1.095 0 1.608.238 2.273.551-.195 1.52-1.523 2.596-2.963 2.596zm14.114-8.63l-2.858 7.111h-.085l-2.955-7.112h-2.682l4.441 9.939-2.534 5.53h2.599l6.841-15.469h-2.767zm-22.415 10.496h2.494V22.969h-2.494v16.406z" fill="#fff"/><path d="M13.913 9.894c-.391.404-.618 1.032-.618 1.846v29.026c0 .814.227 1.442.618 1.846l.097.088 16.523-16.258v-.384L14.01 9.799l-.097.095z" fill="url(#paint0_linear_2260_1915)"/><path d="M36.035 31.864l-5.502-5.422v-.384l5.508-5.422.124.07 6.523 3.654c1.862 1.037 1.862 2.743 0 3.787l-6.523 3.647-.13.07z" fill="url(#paint1_linear_2260_1915)"/><path d="M36.165 31.793l-5.631-5.543-16.62 16.362c.618.64 1.626.717 2.773.077l19.478-10.896z" fill="url(#paint2_linear_2260_1915)"/><path d="M36.165 20.706L16.687 9.811c-1.147-.633-2.155-.556-2.773.084l16.62 16.355 5.631-5.544z" fill="url(#paint3_linear_2260_1915)"/><defs><linearGradient id="paint0_linear_2260_1915" x1="29.066" y1="41.068" x2="7.042" y2="18.694" gradientUnits="userSpaceOnUse"><stop stop-color="#00A0FF"/><stop offset=".007" stop-color="#00A1FF"/><stop offset=".26" stop-color="#00BEFF"/><stop offset=".512" stop-color="#00D2FF"/><stop offset=".76" stop-color="#00DFFF"/><stop offset="1" stop-color="#00E3FF"/></linearGradient><linearGradient id="paint1_linear_2260_1915" x1="45.112" y1="26.248" x2="12.85" y2="26.248" gradientUnits="userSpaceOnUse"><stop stop-color="#FFE000"/><stop offset=".409" stop-color="#FFBD00"/><stop offset=".775" stop-color="orange"/><stop offset="1" stop-color="#FF9C00"/></linearGradient><linearGradient id="paint2_linear_2260_1915" x1="33.103" y1="23.236" x2="3.236" y2="-7.105" gradientUnits="userSpaceOnUse"><stop stop-color="#FF3A44"/><stop offset="1" stop-color="#C31162"/></linearGradient><linearGradient id="paint3_linear_2260_1915" x1="9.73" y1="52.269" x2="23.067" y2="38.72" gradientUnits="userSpaceOnUse"><stop stop-color="#32A071"/><stop offset=".069" stop-color="#2DA771"/><stop offset=".476" stop-color="#15CF74"/><stop offset=".801" stop-color="#06E775"/><stop offset="1" stop-color="#00F076"/></linearGradient></defs></svg>