<svg width="52" height="10" fill="none" xmlns="http://www.w3.org/2000/svg"><path d="M.211 9V.435h1.567v3.511h2.214v1.42H1.778V9H.21zm7.318.122a4.61 4.61 0 01-1.762-.33 4.332 4.332 0 01-1.407-.918 4.256 4.256 0 01-.943-1.395 4.61 4.61 0 01-.33-1.762c0-.636.11-1.223.33-1.762A4.255 4.255 0 014.36 1.56c.4-.391.868-.697 1.407-.917a4.61 4.61 0 011.762-.33c.628 0 1.211.11 1.75.33.546.22 1.02.526 1.419.917.4.392.71.857.93 1.395.22.539.33 1.126.33 1.762 0 .637-.11 1.224-.33 1.762a4.102 4.102 0 01-.93 1.395c-.4.392-.873.698-1.42.918-.538.22-1.121.33-1.75.33zm0-1.395c.4 0 .77-.073 1.113-.22.351-.147.653-.355.906-.624.253-.27.448-.583.587-.942.147-.367.22-.775.22-1.224 0-.448-.073-.852-.22-1.211a2.845 2.845 0 00-.587-.955 2.608 2.608 0 00-.906-.624 2.797 2.797 0 00-1.113-.22c-.4 0-.771.074-1.114.22a2.769 2.769 0 00-.905.624 3.01 3.01 0 00-.6.955 3.34 3.34 0 00-.208 1.211c0 .449.07.857.208 1.224.147.359.347.673.6.942.26.27.563.477.905.624.343.147.714.22 1.114.22zM21.635 9l-2.362-3.133 1.248-.77L23.434 9h-1.799zm-4.687 0V2.466h1.53V9h-1.53zm1.077-2.619V5.11h2.215V6.38h-2.215zm2.643-.465l-1.431-.17 2.398-3.28h1.64l-2.607 3.45zM28.358 9V7.678l-.086-.281V5.084c0-.448-.135-.795-.404-1.04-.27-.253-.677-.379-1.223-.379-.368 0-.73.057-1.09.171-.35.114-.648.274-.893.477l-.6-1.113c.351-.27.767-.47 1.249-.6a5.54 5.54 0 011.517-.208c.946 0 1.676.229 2.19.686.522.448.784 1.146.784 2.092V9h-1.444zm-2.056.086c-.49 0-.918-.082-1.285-.245a2.09 2.09 0 01-.857-.698 1.826 1.826 0 01-.293-1.015c0-.367.085-.698.257-.991.18-.294.469-.526.869-.698.4-.171.93-.257 1.59-.257h1.897v1.016h-1.787c-.522 0-.872.086-1.052.257a.793.793 0 00-.27.612c0 .277.111.497.331.66.22.164.526.245.918.245.375 0 .71-.086 1.003-.257a1.45 1.45 0 00.649-.758l.257.917a1.694 1.694 0 01-.796.894c-.375.212-.852.318-1.431.318zm8.366 0c-.686 0-1.297-.143-1.836-.429a3.266 3.266 0 01-1.248-1.199c-.302-.506-.453-1.08-.453-1.725 0-.653.151-1.228.453-1.725a3.178 3.178 0 011.248-1.187c.539-.286 1.15-.429 1.836-.429.636 0 1.195.13 1.676.392.49.253.86.628 1.114 1.126l-1.175.685a1.865 1.865 0 00-1.628-.906c-.375 0-.713.082-1.015.245-.302.163-.539.4-.71.71-.171.302-.257.665-.257 1.089 0 .424.086.791.257 1.101.171.302.408.534.71.698.302.163.64.244 1.015.244a1.865 1.865 0 001.627-.905l1.176.685c-.253.49-.624.869-1.114 1.138-.481.261-1.04.392-1.676.392zm7.014 0c-.685 0-1.297-.143-1.835-.429a3.266 3.266 0 01-1.248-1.199c-.302-.506-.453-1.08-.453-1.725 0-.653.15-1.228.453-1.725a3.178 3.178 0 011.248-1.187c.538-.286 1.15-.429 1.835-.429.636 0 1.195.13 1.676.392.49.253.861.628 1.114 1.126l-1.175.685a1.865 1.865 0 00-1.627-.906 2.1 2.1 0 00-1.016.245c-.302.163-.538.4-.71.71-.17.302-.257.665-.257 1.089 0 .424.086.791.258 1.101.17.302.407.534.71.698a2.1 2.1 0 001.015.244 1.865 1.865 0 001.627-.905l1.175.685c-.253.49-.624.869-1.114 1.138-.48.261-1.04.392-1.676.392zM49.783 9V7.678l-.086-.281V5.084c0-.448-.134-.795-.403-1.04-.27-.253-.677-.379-1.224-.379-.367 0-.73.057-1.089.171-.35.114-.648.274-.893.477l-.6-1.113c.351-.27.767-.47 1.248-.6.49-.138.995-.208 1.518-.208.946 0 1.676.229 2.19.686.522.448.783 1.146.783 2.092V9h-1.444zm-2.056.086c-.489 0-.917-.082-1.284-.245a2.09 2.09 0 01-.857-.698 1.826 1.826 0 01-.294-1.015c0-.367.086-.698.257-.991.18-.294.47-.526.87-.698.399-.171.93-.257 1.59-.257h1.897v1.016h-1.787c-.522 0-.873.086-1.052.257a.792.792 0 00-.27.612c0 .277.11.497.33.66.221.164.527.245.919.245.375 0 .71-.086 1.003-.257a1.45 1.45 0 00.648-.758l.258.917a1.695 1.695 0 01-.796.894c-.375.212-.852.318-1.431.318z" fill="#000"/></svg>