<svg width="18" height="18" viewBox="0 0 18 18" fill="none" xmlns="http://www.w3.org/2000/svg">
<path d="M2.25 4.5H3.75H15.75" stroke="black" stroke-width="1.5" stroke-linecap="round" stroke-linejoin="round"/>
<path d="M6.00024 4.50024V3.00024C6.00024 2.60242 6.15828 2.22089 6.43958 1.93958C6.72089 1.65828 7.10242 1.50024 7.50024 1.50024H10.5002C10.8981 1.50024 11.2796 1.65828 11.5609 1.93958C11.8422 2.22089 12.0002 2.60242 12.0002 3.00024V4.50024M14.2502 4.50024V15.0002C14.2502 15.3981 14.0922 15.7796 13.8109 16.0609C13.5296 16.3422 13.1481 16.5002 12.7502 16.5002H5.25024C4.85242 16.5002 4.47089 16.3422 4.18958 16.0609C3.90828 15.7796 3.75024 15.3981 3.75024 15.0002V4.50024H14.2502Z" stroke="black" stroke-width="1.5" stroke-linecap="round" stroke-linejoin="round"/>
<path d="M10.5002 8.25024V12.7502" stroke="black" stroke-width="1.5" stroke-linecap="round" stroke-linejoin="round"/>
<path d="M7.49976 8.25024V12.7502" stroke="black" stroke-width="1.5" stroke-linecap="round" stroke-linejoin="round"/>
</svg>
