<svg width="138" height="18" fill="none" xmlns="http://www.w3.org/2000/svg"><path d="M.39 17.547V1.007h3.384v13.657h6.86v2.883H.39zM26.954 9.277c0 1.804-.33 3.338-.992 4.604-.656 1.265-1.552 2.231-2.688 2.899-1.13.662-2.4.993-3.812.993-1.422 0-2.698-.334-3.829-1.001-1.13-.668-2.023-1.634-2.68-2.9-.656-1.265-.984-2.796-.984-4.595 0-1.803.328-3.338.985-4.603.656-1.265 1.55-2.23 2.68-2.891C16.764 1.115 18.04.78 19.462.78c1.411 0 2.682.334 3.812 1.002 1.136.662 2.032 1.626 2.688 2.89.662 1.266.992 2.8.992 4.604zm-3.43 0c0-1.168-.169-2.153-.507-2.956-.334-.802-.805-1.41-1.415-1.825-.609-.414-1.323-.622-2.14-.622-.818 0-1.532.208-2.141.622-.61.415-1.083 1.023-1.422 1.825-.333.803-.5 1.788-.5 2.956s.167 2.154.5 2.956c.339.802.813 1.41 1.422 1.825.61.415 1.323.622 2.14.622.819 0 1.532-.207 2.142-.622.609-.414 1.08-1.023 1.414-1.825.338-.802.507-1.788.507-2.956zM40.07 6.354a3.686 3.686 0 00-.46-1.042 2.899 2.899 0 00-.727-.775 3.077 3.077 0 00-.97-.493 3.97 3.97 0 00-1.195-.17c-.817 0-1.536.21-2.156.63-.615.42-1.094 1.031-1.438 1.834-.343.796-.515 1.77-.515 2.923 0 1.152.17 2.132.508 2.94.338.807.817 1.424 1.437 1.85.62.42 1.352.63 2.196.63.765 0 1.419-.14 1.96-.42a2.954 2.954 0 001.25-1.204c.292-.517.438-1.128.438-1.834l.688.105H36.96V8.697h6.695v2.083c0 1.454-.297 2.703-.89 3.748a6.162 6.162 0 01-2.454 2.406c-1.041.56-2.234.84-3.578.84-1.5 0-2.818-.342-3.953-1.026-1.136-.689-2.021-1.666-2.657-2.931-.63-1.27-.945-2.778-.945-4.523 0-1.34.188-2.535.563-3.585.38-1.056.911-1.95 1.593-2.682a6.881 6.881 0 012.383-1.671A7.501 7.501 0 0136.664.78c.906 0 1.75.138 2.531.412.781.27 1.474.652 2.078 1.147a6.153 6.153 0 012.235 4.014H40.07zM49.58 1.007v16.54h-3.383V1.007h3.383zM61.044 5.764c-.063-.651-.331-1.157-.805-1.518-.474-.36-1.117-.541-1.93-.541-.552 0-1.018.08-1.398.242-.38.156-.672.374-.875.654a1.61 1.61 0 00-.297.953c-.01.296.05.555.18.775.135.221.32.412.554.574.235.156.505.293.813.412.307.113.635.21.984.29l1.438.356a9.908 9.908 0 011.922.646c.583.27 1.088.6 1.515.993.427.393.758.856.992 1.39.24.532.362 1.143.368 1.833-.005 1.012-.255 1.89-.75 2.632-.49.738-1.198 1.311-2.125 1.72-.922.404-2.034.606-3.337.606-1.291 0-2.416-.204-3.375-.613-.953-.41-1.698-1.015-2.234-1.818-.531-.807-.81-1.806-.836-2.996h3.273c.037.555.19 1.018.461 1.39a2.57 2.57 0 001.102.831c.464.183.987.275 1.57.275.573 0 1.07-.086 1.493-.259.427-.172.758-.412.992-.718.234-.307.352-.66.352-1.058 0-.372-.107-.684-.32-.937-.21-.253-.517-.469-.923-.646a9.153 9.153 0 00-1.476-.485l-1.743-.452c-1.349-.34-2.414-.87-3.195-1.591-.781-.722-1.17-1.693-1.164-2.916-.005-1.001.252-1.876.773-2.624.526-.749 1.248-1.333 2.164-1.753.917-.42 1.959-.63 3.126-.63 1.187 0 2.224.21 3.11.63.89.42 1.583 1.004 2.077 1.753.495.748.75 1.615.766 2.6h-3.242zM66.17 3.89V1.008h13.142v2.884h-4.899v13.656H71.07V3.891h-4.898zM84.86 1.007v16.54h-3.384V1.007h3.383zM101.76 6.798h-3.422a3.54 3.54 0 00-.383-1.22 3.08 3.08 0 00-.742-.92 3.234 3.234 0 00-1.047-.582 3.885 3.885 0 00-1.273-.202c-.828 0-1.55.213-2.164.638-.615.42-1.092 1.034-1.43 1.842-.339.802-.508 1.776-.508 2.923 0 1.18.17 2.17.508 2.972.344.802.823 1.408 1.437 1.817.615.41 1.326.614 2.133.614.453 0 .873-.062 1.258-.186.39-.123.737-.304 1.04-.54a3.09 3.09 0 00.75-.881c.202-.345.343-.738.421-1.18l3.422.017a6.547 6.547 0 01-.664 2.197c-.349.7-.82 1.327-1.414 1.881a6.62 6.62 0 01-2.11 1.309c-.812.317-1.731.476-2.757.476-1.428 0-2.704-.334-3.829-1.001-1.12-.668-2.005-1.634-2.656-2.9-.646-1.265-.969-2.796-.969-4.595 0-1.803.328-3.338.985-4.603.656-1.265 1.546-2.23 2.671-2.891C92.144 1.115 93.409.78 94.816.78a7.96 7.96 0 012.578.404c.797.27 1.502.662 2.117 1.18a6.016 6.016 0 011.5 1.88c.391.744.641 1.595.75 2.553zM112.866 5.764c-.062-.651-.331-1.157-.805-1.518-.474-.36-1.117-.541-1.929-.541-.552 0-1.019.08-1.399.242-.38.156-.672.374-.875.654a1.61 1.61 0 00-.297.953c-.01.296.05.555.18.775.135.221.32.412.555.574.234.156.505.293.812.412.307.113.636.21.985.29l1.437.356a9.899 9.899 0 011.922.646c.583.27 1.089.6 1.516.993.427.393.758.856.992 1.39.24.532.362 1.143.367 1.833-.005 1.012-.255 1.89-.75 2.632-.489.738-1.198 1.311-2.125 1.72-.922.404-2.034.606-3.336.606-1.292 0-2.417-.204-3.375-.613-.953-.41-1.698-1.015-2.235-1.818-.531-.807-.81-1.806-.836-2.996h3.274c.036.555.19 1.018.461 1.39.276.365.643.643 1.102.831.463.183.987.275 1.57.275.573 0 1.07-.086 1.492-.259.427-.172.758-.412.992-.718.235-.307.352-.66.352-1.058 0-.372-.107-.684-.32-.937-.209-.253-.516-.469-.922-.646a9.14 9.14 0 00-1.477-.485l-1.742-.452c-1.349-.34-2.414-.87-3.196-1.591-.781-.722-1.169-1.693-1.164-2.916-.005-1.001.253-1.876.774-2.624.526-.749 1.247-1.333 2.164-1.753.917-.42 1.958-.63 3.125-.63 1.188 0 2.224.21 3.11.63.89.42 1.583 1.004 2.078 1.753.495.748.75 1.615.765 2.6h-3.242zM126.867 1.007l3.226 5.637h.125l3.243-5.637h3.82l-4.883 8.27 4.993 8.27H133.5l-3.282-5.645h-.125l-3.281 5.645h-3.875l5.008-8.27-4.914-8.27h3.836z" fill="#fff"/></svg>