<svg width="52" height="10" viewBox="0 0 52 10" fill="none" xmlns="http://www.w3.org/2000/svg">
<path d="M0.211399 9V0.43455H1.77765V3.94638H3.99243V5.3658H1.77765V9H0.211399ZM7.52874 9.12236C6.89245 9.12236 6.3051 9.01224 5.76671 8.79198C5.22831 8.57173 4.75925 8.26582 4.35952 7.87426C3.9598 7.48269 3.64574 7.01771 3.41732 6.47931C3.19707 5.94091 3.08694 5.35357 3.08694 4.71728C3.08694 4.08098 3.19707 3.49364 3.41732 2.95524C3.64574 2.41684 3.9598 1.95186 4.35952 1.5603C4.75925 1.16873 5.22831 0.862823 5.76671 0.642569C6.3051 0.422314 6.89245 0.312187 7.52874 0.312187C8.15687 0.312187 8.74014 0.422314 9.27854 0.642569C9.8251 0.862823 10.2982 1.16873 10.698 1.5603C11.0977 1.95186 11.4077 2.41684 11.6279 2.95524C11.8482 3.49364 11.9583 4.08098 11.9583 4.71728C11.9583 5.35357 11.8482 5.94091 11.6279 6.47931C11.4077 7.01771 11.0977 7.48269 10.698 7.87426C10.2982 8.26582 9.8251 8.57173 9.27854 8.79198C8.74014 9.01224 8.15687 9.12236 7.52874 9.12236ZM7.52874 7.72742C7.92846 7.72742 8.29963 7.654 8.64225 7.50716C8.99302 7.36033 9.29485 7.15231 9.54774 6.88311C9.80062 6.61391 9.99641 6.29984 10.1351 5.94091C10.2819 5.57382 10.3553 5.16594 10.3553 4.71728C10.3553 4.26861 10.2819 3.86481 10.1351 3.50588C9.99641 3.13879 9.80062 2.82064 9.54774 2.55144C9.29485 2.28224 8.99302 2.07422 8.64225 1.92739C8.29963 1.78055 7.92846 1.70713 7.52874 1.70713C7.12902 1.70713 6.75785 1.78055 6.41523 1.92739C6.07261 2.07422 5.77078 2.28224 5.50974 2.55144C5.25686 2.82064 5.057 3.13879 4.91016 3.50588C4.77148 3.86481 4.70214 4.26861 4.70214 4.71728C4.70214 5.16594 4.77148 5.57382 4.91016 5.94091C5.057 6.29984 5.25686 6.61391 5.50974 6.88311C5.77078 7.15231 6.07261 7.36033 6.41523 7.50716C6.75785 7.654 7.12902 7.72742 7.52874 7.72742ZM21.635 9L19.2733 5.86749L20.5215 5.0966L23.4337 9H21.635ZM16.9484 9V2.46579H18.478V9H16.9484ZM18.0252 6.38142V5.10884H20.24V6.38142H18.0252ZM20.6683 5.91644L19.2366 5.74513L21.635 2.46579H23.2746L20.6683 5.91644ZM28.3576 9V7.67847L28.2719 7.39704V5.08437C28.2719 4.6357 28.1373 4.289 27.8681 4.04428C27.5989 3.79139 27.1911 3.66495 26.6445 3.66495C26.2774 3.66495 25.9144 3.72205 25.5555 3.83626C25.2047 3.95046 24.9069 4.10954 24.6622 4.31348L24.0626 3.19997C24.4134 2.93077 24.8294 2.73091 25.3107 2.60039C25.8002 2.46171 26.306 2.39237 26.8281 2.39237C27.7743 2.39237 28.5044 2.62078 29.0184 3.0776C29.5404 3.52627 29.8015 4.22374 29.8015 5.17002V9H28.3576ZM26.3019 9.08565C25.8124 9.08565 25.3842 9.00408 25.0171 8.84093C24.65 8.66962 24.3645 8.43713 24.1605 8.14346C23.9647 7.84162 23.8669 7.50309 23.8669 7.12784C23.8669 6.76075 23.9525 6.43037 24.1238 6.13669C24.3033 5.84302 24.5929 5.61053 24.9926 5.43922C25.3923 5.26791 25.9226 5.18226 26.5833 5.18226H28.48V6.19787H26.6935C26.1714 6.19787 25.8206 6.28353 25.6411 6.45484C25.4617 6.61799 25.3719 6.82193 25.3719 7.06666C25.3719 7.34401 25.4821 7.56427 25.7023 7.72742C25.9226 7.89057 26.2285 7.97215 26.62 7.97215C26.9953 7.97215 27.3297 7.88649 27.6234 7.71518C27.9252 7.54387 28.1414 7.29099 28.2719 6.95653L28.5289 7.87426C28.3821 8.25766 28.117 8.55541 27.7335 8.76751C27.3583 8.97961 26.8811 9.08565 26.3019 9.08565ZM34.6676 9.08565C33.9824 9.08565 33.3706 8.9429 32.8322 8.65738C32.3019 8.36371 31.8859 7.96399 31.5841 7.45822C31.2822 6.95245 31.1313 6.37734 31.1313 5.73289C31.1313 5.08029 31.2822 4.50518 31.5841 4.00757C31.8859 3.5018 32.3019 3.10616 32.8322 2.82064C33.3706 2.53513 33.9824 2.39237 34.6676 2.39237C35.3039 2.39237 35.8627 2.52289 36.344 2.78393C36.8335 3.03682 37.2046 3.41206 37.4575 3.90968L36.2828 4.59491C36.0871 4.28492 35.8464 4.05651 35.5609 3.90968C35.2835 3.76284 34.9817 3.68942 34.6554 3.68942C34.2802 3.68942 33.9416 3.771 33.6398 3.93415C33.338 4.0973 33.1014 4.33387 32.9301 4.64386C32.7588 4.94569 32.6731 5.3087 32.6731 5.73289C32.6731 6.15709 32.7588 6.52418 32.9301 6.83417C33.1014 7.136 33.338 7.36849 33.6398 7.53164C33.9416 7.69479 34.2802 7.77636 34.6554 7.77636C34.9817 7.77636 35.2835 7.70295 35.5609 7.55611C35.8464 7.40927 36.0871 7.18086 36.2828 6.87087L37.4575 7.55611C37.2046 8.04556 36.8335 8.42489 36.344 8.69409C35.8627 8.95513 35.3039 9.08565 34.6676 9.08565ZM41.682 9.08565C40.9968 9.08565 40.385 8.9429 39.8466 8.65738C39.3163 8.36371 38.9003 7.96399 38.5985 7.45822C38.2966 6.95245 38.1457 6.37734 38.1457 5.73289C38.1457 5.08029 38.2966 4.50518 38.5985 4.00757C38.9003 3.5018 39.3163 3.10616 39.8466 2.82064C40.385 2.53513 40.9968 2.39237 41.682 2.39237C42.3183 2.39237 42.8771 2.52289 43.3584 2.78393C43.8479 3.03682 44.219 3.41206 44.4719 3.90968L43.2972 4.59491C43.1015 4.28492 42.8608 4.05651 42.5753 3.90968C42.2979 3.76284 41.9961 3.68942 41.6698 3.68942C41.2945 3.68942 40.956 3.771 40.6542 3.93415C40.3523 4.0973 40.1158 4.33387 39.9445 4.64386C39.7732 4.94569 39.6875 5.3087 39.6875 5.73289C39.6875 6.15709 39.7732 6.52418 39.9445 6.83417C40.1158 7.136 40.3523 7.36849 40.6542 7.53164C40.956 7.69479 41.2945 7.77636 41.6698 7.77636C41.9961 7.77636 42.2979 7.70295 42.5753 7.55611C42.8608 7.40927 43.1015 7.18086 43.2972 6.87087L44.4719 7.55611C44.219 8.04556 43.8479 8.42489 43.3584 8.69409C42.8771 8.95513 42.3183 9.08565 41.682 9.08565ZM49.7832 9V7.67847L49.6975 7.39704V5.08437C49.6975 4.6357 49.5629 4.289 49.2937 4.04428C49.0245 3.79139 48.6166 3.66495 48.0701 3.66495C47.703 3.66495 47.34 3.72205 46.981 3.83626C46.6303 3.95046 46.3325 4.10954 46.0878 4.31348L45.4882 3.19997C45.839 2.93077 46.255 2.73091 46.7363 2.60039C47.2258 2.46171 47.7315 2.39237 48.2536 2.39237C49.1999 2.39237 49.93 2.62078 50.4439 3.0776C50.966 3.52627 51.2271 4.22374 51.2271 5.17002V9H49.7832ZM47.7275 9.08565C47.238 9.08565 46.8097 9.00408 46.4426 8.84093C46.0756 8.66962 45.79 8.43713 45.5861 8.14346C45.3903 7.84162 45.2924 7.50309 45.2924 7.12784C45.2924 6.76075 45.3781 6.43037 45.5494 6.13669C45.7289 5.84302 46.0185 5.61053 46.4182 5.43922C46.8179 5.26791 47.3481 5.18226 48.0089 5.18226H49.9055V6.19787H48.119C47.5969 6.19787 47.2462 6.28353 47.0667 6.45484C46.8872 6.61799 46.7975 6.82193 46.7975 7.06666C46.7975 7.34401 46.9076 7.56427 47.1279 7.72742C47.3481 7.89057 47.654 7.97215 48.0456 7.97215C48.4209 7.97215 48.7553 7.88649 49.049 7.71518C49.3508 7.54387 49.567 7.29099 49.6975 6.95653L49.9545 7.87426C49.8076 8.25766 49.5425 8.55541 49.1591 8.76751C48.7839 8.97961 48.3067 9.08565 47.7275 9.08565Z" fill="black"/>
</svg>
