<svg width="21" height="20" fill="none" xmlns="http://www.w3.org/2000/svg"><path d="M.693 1.25A.74.74 0 01.92.708.74.74 0 011.462.48H2.88a1.824 1.824 0 011.61.986l.53 1.057h14.014c.497 0 .87.213 1.118.637.248.425.252.854.012 1.287l-3.39 5.889a1.748 1.748 0 01-1.538.913H7.52l-1.346 2.164a.283.283 0 000 .276c.048.088.12.133.216.133h11.49a.76.76 0 01.541.216.728.728 0 01.229.553.739.739 0 01-.229.54.739.739 0 01-.54.229H6.39c-.705 0-1.23-.308-1.575-.925-.344-.617-.324-1.23.06-1.84l1.37-2.211-2.403-6.779-.721-1.442a.347.347 0 00-.108-.108.252.252 0 00-.133-.036H1.462a.74.74 0 01-.54-.229.74.74 0 01-.23-.54zM5.62 4.061L7.64 9.71h7.596a.215.215 0 00.108-.036.56.56 0 00.109-.084l3.149-5.53H5.62zm3.029 14.11c0 .433-.153.798-.457 1.094a1.498 1.498 0 01-1.082.445c-.433 0-.797-.148-1.094-.445a1.486 1.486 0 01-.444-1.093c0-.433.148-.798.444-1.094a1.487 1.487 0 011.094-.445c.417 0 .777.148 1.082.445.304.296.457.66.457 1.093zm7.692 1.539c.417 0 .777-.148 1.082-.445.304-.296.456-.66.456-1.093 0-.433-.152-.798-.456-1.094a1.498 1.498 0 00-1.082-.445c-.433 0-.797.148-1.094.445a1.487 1.487 0 00-.445 1.093c0 .433.149.798.445 1.094.297.297.661.445 1.094.445z" fill="#fff"/></svg>