<svg width="27" height="31" fill="none" xmlns="http://www.w3.org/2000/svg"><path d="M.844 29.547c0 .801.568 1.453 1.265 1.453h17.72c.697 0 1.265-.652 1.265-1.453v-8.235c0-.267-.19-.484-.422-.484-.233 0-.422.217-.422.485v8.234c0 .266-.189.484-.422.484H2.11c-.232 0-.421-.218-.421-.484V1.453c0-.266.189-.484.421-.484h17.72c.232 0 .421.218.421.484v8.235c0 .267.189.484.422.484.233 0 .422-.217.422-.485V1.454C21.094.652 20.526 0 19.828 0H2.11C1.412 0 .844.652.844 1.453v28.094z" fill="#fff"/><path d="M22.612 19.458c.082.095.19.141.298.141a.398.398 0 00.299-.141l2.726-3.13a.537.537 0 000-.685l-2.726-3.13a.385.385 0 00-.596 0 .537.537 0 000 .685l2.005 2.302H12.656c-.233 0-.422.217-.422.485 0 .267.19.484.422.484h11.962l-2.006 2.304a.537.537 0 000 .685z" fill="#fff"/></svg>