<svg width="180" height="53" viewBox="0 0 180 53" fill="none" xmlns="http://www.w3.org/2000/svg">
<path d="M173.333 52.5H6.66667C3.00167 52.5 0 49.5452 0 45.9375V6.5625C0 2.95477 3.00167 0 6.66667 0H173.333C176.998 0 180 2.95477 180 6.5625V45.9375C180 49.5452 176.998 52.5 173.333 52.5Z" fill="black"/>
<path d="M173.333 1.05164C176.42 1.05164 178.932 3.52406 178.932 6.5625V45.9375C178.932 48.9759 176.42 51.4484 173.333 51.4484H6.66667C3.58 51.4484 1.06833 48.9759 1.06833 45.9375V6.5625C1.06833 3.52406 3.58 1.05164 6.66667 1.05164H173.333ZM173.333 0H6.66667C3.00167 0 0 2.95477 0 6.5625V45.9375C0 49.5452 3.00167 52.5 6.66667 52.5H173.333C176.998 52.5 180 49.5452 180 45.9375V6.5625C180 2.95477 176.998 0 173.333 0Z" fill="#A6A6A6"/>
<path d="M63.2234 13.4449C63.2234 14.5408 62.8901 15.4185 62.2334 16.0731C61.4784 16.8492 60.4951 17.2396 59.2901 17.2396C58.1384 17.2396 57.155 16.8426 56.3484 16.06C55.54 15.266 55.1367 14.2914 55.1367 13.1249C55.1367 11.9585 55.54 10.9839 56.3484 10.1964C57.155 9.40729 58.1384 9.01025 59.2901 9.01025C59.8634 9.01025 60.41 9.12674 60.9317 9.3433C61.4517 9.5615 61.875 9.85682 62.1817 10.221L61.485 10.9134C60.95 10.2916 60.2217 9.98479 59.2901 9.98479C58.4501 9.98479 57.7217 10.2735 57.1034 10.856C56.4917 11.44 56.185 12.1963 56.185 13.1249C56.185 14.0535 56.4917 14.8164 57.1034 15.4005C57.7217 15.9763 58.4501 16.2717 59.2901 16.2717C60.1817 16.2717 60.9317 15.9763 61.5234 15.3939C61.9134 15.0084 62.1351 14.4768 62.1934 13.7976H59.2901V12.8493H63.1634C63.21 13.0544 63.2234 13.2529 63.2234 13.4449Z" fill="white" stroke="white" stroke-width="0.16" stroke-miterlimit="10"/>
<path d="M69.3685 10.1572H65.7302V12.651H69.0102V13.5993H65.7302V16.093H69.3685V17.0594H64.7002V9.19092H69.3685V10.1572Z" fill="white" stroke="white" stroke-width="0.16" stroke-miterlimit="10"/>
<path d="M73.705 17.0594H72.675V10.1572H70.4434V9.19092H75.9384V10.1572H73.705V17.0594Z" fill="white" stroke="white" stroke-width="0.16" stroke-miterlimit="10"/>
<path d="M79.915 17.0594V9.19092H80.9434V17.0594H79.915Z" fill="white" stroke="white" stroke-width="0.16" stroke-miterlimit="10"/>
<path d="M85.5014 17.0594H84.4797V10.1572H82.2397V9.19092H87.7414V10.1572H85.5014V17.0594Z" fill="white" stroke="white" stroke-width="0.16" stroke-miterlimit="10"/>
<path d="M98.1451 16.0469C97.3568 16.8426 96.3801 17.2396 95.2151 17.2396C94.0434 17.2396 93.0668 16.8426 92.2784 16.0469C91.4918 15.2528 91.1001 14.2783 91.1001 13.1249C91.1001 11.9716 91.4918 10.9971 92.2784 10.203C93.0668 9.40729 94.0434 9.01025 95.2151 9.01025C96.3734 9.01025 97.3501 9.40729 98.1384 10.2096C98.9318 11.0102 99.3234 11.9781 99.3234 13.1249C99.3234 14.2783 98.9318 15.2528 98.1451 16.0469ZM93.0401 15.3874C93.6334 15.9763 94.3551 16.2717 95.2151 16.2717C96.0684 16.2717 96.7968 15.9763 97.3834 15.3874C97.9751 14.7984 98.2751 14.0421 98.2751 13.1249C98.2751 12.2078 97.9751 11.4515 97.3834 10.8625C96.7968 10.2735 96.0684 9.97822 95.2151 9.97822C94.3551 9.97822 93.6334 10.2735 93.0401 10.8625C92.4484 11.4515 92.1484 12.2078 92.1484 13.1249C92.1484 14.0421 92.4484 14.7984 93.0401 15.3874Z" fill="white" stroke="white" stroke-width="0.16" stroke-miterlimit="10"/>
<path d="M100.769 17.0594V9.19092H102.019L105.905 15.3104H105.95L105.905 13.7978V9.19092H106.934V17.0594H105.86L101.79 10.6379H101.745L101.79 12.1572V17.0594H100.769Z" fill="white" stroke="white" stroke-width="0.16" stroke-miterlimit="10"/>
<path d="M90.8469 28.55C87.7152 28.55 85.1569 30.8961 85.1569 34.133C85.1569 37.3438 87.7152 39.7145 90.8469 39.7145C93.9852 39.7145 96.5435 37.3438 96.5435 34.133C96.5435 30.8961 93.9852 28.55 90.8469 28.55ZM90.8469 37.516C89.1285 37.516 87.6502 36.1198 87.6502 34.133C87.6502 32.12 89.1285 30.7484 90.8469 30.7484C92.5652 30.7484 94.0502 32.12 94.0502 34.133C94.0502 36.1198 92.5652 37.516 90.8469 37.516ZM78.4319 28.55C75.2935 28.55 72.7419 30.8961 72.7419 34.133C72.7419 37.3438 75.2935 39.7145 78.4319 39.7145C81.5685 39.7145 84.1219 37.3438 84.1219 34.133C84.1219 30.8961 81.5685 28.55 78.4319 28.55ZM78.4319 37.516C76.7119 37.516 75.2285 36.1198 75.2285 34.133C75.2285 32.12 76.7119 30.7484 78.4319 30.7484C80.1502 30.7484 81.6285 32.12 81.6285 34.133C81.6285 36.1198 80.1502 37.516 78.4319 37.516ZM63.6585 30.2612V32.6335H69.4135C69.2452 33.9591 68.7952 34.9337 68.1052 35.6129C67.2652 36.4332 65.9569 37.3438 63.6585 37.3438C60.1169 37.3438 57.3435 34.5301 57.3435 31.0438C57.3435 27.5574 60.1169 24.7438 63.6585 24.7438C65.5735 24.7438 66.9669 25.4804 67.9952 26.4352L69.6935 24.7634C68.2552 23.4116 66.3419 22.3731 63.6585 22.3731C58.8019 22.3731 54.7202 26.263 54.7202 31.0438C54.7202 35.8245 58.8019 39.7145 63.6585 39.7145C66.2835 39.7145 68.2552 38.8679 69.8052 37.2798C71.3935 35.7163 71.8885 33.5178 71.8885 31.7427C71.8885 31.1914 71.8419 30.6845 71.7585 30.2612H63.6585ZM124.069 32.1003C123.6 30.8518 122.155 28.55 119.212 28.55C116.295 28.55 113.867 30.8124 113.867 34.133C113.867 37.2601 116.27 39.7145 119.492 39.7145C122.097 39.7145 123.6 38.1509 124.219 37.2404L122.285 35.9722C121.64 36.9008 120.762 37.516 119.492 37.516C118.23 37.516 117.325 36.9467 116.745 35.8245L124.33 32.7352L124.069 32.1003ZM116.335 33.9591C116.27 31.8066 118.034 30.7041 119.297 30.7041C120.287 30.7041 121.127 31.1914 121.407 31.8887L116.335 33.9591ZM110.17 39.3748H112.664V22.9686H110.17V39.3748ZM106.087 29.7936H106.004C105.444 29.1406 104.375 28.55 103.022 28.55C100.182 28.55 97.5852 31.0044 97.5852 34.1511C97.5852 37.2798 100.182 39.7145 103.022 39.7145C104.375 39.7145 105.444 39.1189 106.004 38.4463H106.087V39.2469C106.087 41.3813 104.929 42.5281 103.06 42.5281C101.537 42.5281 100.592 41.4453 100.202 40.5348L98.0335 41.4256C98.6585 42.9055 100.314 44.7266 103.06 44.7266C105.984 44.7266 108.45 43.0334 108.45 38.9138V28.8896H106.087V29.7936ZM103.235 37.516C101.517 37.516 100.079 36.1002 100.079 34.1511C100.079 32.184 101.517 30.7484 103.235 30.7484C104.929 30.7484 106.264 32.184 106.264 34.1511C106.264 36.1002 104.929 37.516 103.235 37.516ZM135.742 22.9686H129.779V39.3748H132.265V33.1585H135.742C138.504 33.1585 141.212 31.1914 141.212 28.0627C141.212 24.9357 138.497 22.9686 135.742 22.9686ZM135.807 30.8764H132.265V25.2507H135.807C137.664 25.2507 138.724 26.7683 138.724 28.0627C138.724 29.3326 137.664 30.8764 135.807 30.8764ZM151.179 28.5188C149.382 28.5188 147.513 29.2998 146.745 31.0306L148.952 31.9412C149.427 31.0306 150.3 30.7353 151.224 30.7353C152.514 30.7353 153.822 31.4982 153.842 32.8452V33.0174C153.392 32.7615 152.429 32.3825 151.244 32.3825C148.867 32.3825 146.445 33.6704 146.445 36.0739C146.445 38.2723 148.392 39.6882 150.58 39.6882C152.254 39.6882 153.177 38.945 153.757 38.0804H153.842V39.3486H156.244V33.0552C156.244 30.1463 154.037 28.5188 151.179 28.5188ZM150.879 37.5095C150.065 37.5095 148.932 37.1124 148.932 36.1198C148.932 34.85 150.345 34.3627 151.569 34.3627C152.664 34.3627 153.177 34.6006 153.842 34.914C153.647 36.4332 152.319 37.5095 150.879 37.5095ZM164.993 28.8781L162.135 35.9902H162.05L159.095 28.8781H156.413L160.854 38.817L158.32 44.3476H160.919L167.76 28.8781H164.993ZM142.578 39.3748H145.072V22.9686H142.578V39.3748Z" fill="white"/>
<path d="M13.9133 9.89474C13.5216 10.2983 13.2949 10.9267 13.2949 11.7404V40.7664C13.2949 41.5801 13.5216 42.2085 13.9133 42.6121L14.0099 42.7007L30.5332 26.4421V26.0582L14.0099 9.79959L13.9133 9.89474Z" fill="url(#paint0_linear_35_1991)"/>
<path d="M36.0349 31.8643L30.5332 26.442V26.0581L36.0415 20.6358L36.1649 20.7064L42.6882 24.36C44.5499 25.3969 44.5499 27.1032 42.6882 28.1466L36.1649 31.7937L36.0349 31.8643Z" fill="url(#paint1_linear_35_1991)"/>
<path d="M36.1652 31.7939L30.5336 26.2502L13.9136 42.6121C14.5319 43.252 15.5402 43.3291 16.6869 42.6893L36.1652 31.7939Z" fill="url(#paint2_linear_35_1991)"/>
<path d="M36.1652 20.7063L16.6869 9.81094C15.5402 9.17766 14.5319 9.25477 13.9136 9.89461L30.5336 26.25L36.1652 20.7063Z" fill="url(#paint3_linear_35_1991)"/>
<defs>
<linearGradient id="paint0_linear_35_1991" x1="29.0662" y1="41.0687" x2="7.04201" y2="18.6949" gradientUnits="userSpaceOnUse">
<stop stop-color="#00A0FF"/>
<stop offset="0.0066" stop-color="#00A1FF"/>
<stop offset="0.2601" stop-color="#00BEFF"/>
<stop offset="0.5122" stop-color="#00D2FF"/>
<stop offset="0.7604" stop-color="#00DFFF"/>
<stop offset="1" stop-color="#00E3FF"/>
</linearGradient>
<linearGradient id="paint1_linear_35_1991" x1="45.1124" y1="26.2482" x2="12.8499" y2="26.2482" gradientUnits="userSpaceOnUse">
<stop stop-color="#FFE000"/>
<stop offset="0.4087" stop-color="#FFBD00"/>
<stop offset="0.7754" stop-color="#FFA500"/>
<stop offset="1" stop-color="#FF9C00"/>
</linearGradient>
<linearGradient id="paint2_linear_35_1991" x1="33.1029" y1="23.2366" x2="3.23635" y2="-7.10407" gradientUnits="userSpaceOnUse">
<stop stop-color="#FF3A44"/>
<stop offset="1" stop-color="#C31162"/>
</linearGradient>
<linearGradient id="paint3_linear_35_1991" x1="9.72997" y1="52.2687" x2="23.0667" y2="38.7204" gradientUnits="userSpaceOnUse">
<stop stop-color="#32A071"/>
<stop offset="0.0685" stop-color="#2DA771"/>
<stop offset="0.4762" stop-color="#15CF74"/>
<stop offset="0.8009" stop-color="#06E775"/>
<stop offset="1" stop-color="#00F076"/>
</linearGradient>
</defs>
</svg>
