<svg width="20" height="21" viewBox="0 0 20 21" fill="none" xmlns="http://www.w3.org/2000/svg">
<path d="M10.0005 1.76209C8.83062 1.76209 7.73286 1.98645 6.70722 2.43517C5.68158 2.86786 4.78414 3.46882 4.01491 4.23806C3.24568 5.00729 2.64472 5.90472 2.21203 6.93036C1.76331 7.956 1.53895 9.05376 1.53895 10.2236C1.53895 11.2493 1.71123 12.2228 2.05578 13.1443C2.40033 14.0658 2.87709 14.8951 3.48607 15.6323C4.22324 14.8631 5.11267 14.206 6.15433 13.6611C7.196 13.1163 8.47805 12.8438 10.0005 12.8438C11.5229 12.8438 12.805 13.1163 13.8466 13.6611C14.8883 14.206 15.7777 14.8631 16.5149 15.6323C17.1239 14.8951 17.6006 14.0658 17.9452 13.1443C18.2898 12.2228 18.462 11.2493 18.462 10.2236C18.462 9.05376 18.2377 7.956 17.7889 6.93036C17.3563 5.90472 16.7553 5.00729 15.9861 4.23806C15.2168 3.46882 14.3194 2.86786 13.2938 2.43517C12.2681 1.98645 11.1704 1.76209 10.0005 1.76209ZM15.4332 16.714C14.7922 16.057 14.043 15.5041 13.1856 15.0554C12.3282 14.6066 11.2665 14.3823 10.0005 14.3823C8.73446 14.3823 7.67276 14.6066 6.81539 15.0554C5.95802 15.5041 5.20882 16.057 4.5678 16.714C5.30498 17.323 6.13831 17.8038 7.0678 18.1563C7.99728 18.5089 8.97485 18.6852 10.0005 18.6852C11.0261 18.6852 12.0037 18.5089 12.9332 18.1563C13.8627 17.8038 14.696 17.323 15.4332 16.714ZM0.000488281 10.2236C0.000488281 8.84543 0.264911 7.54735 0.793757 6.3294C1.30658 5.11145 2.01571 4.04976 2.92116 3.14431C3.82661 2.23886 4.88831 1.52972 6.10626 1.0169C7.32421 0.488056 8.62228 0.223633 10.0005 0.223633C11.3787 0.223633 12.6768 0.488056 13.8947 1.0169C15.1127 1.52972 16.1744 2.23886 17.0798 3.14431C17.9853 4.04976 18.6944 5.11145 19.2072 6.3294C19.7361 7.54735 20.0005 8.84543 20.0005 10.2236C20.0005 11.6018 19.7361 12.8999 19.2072 14.1179C18.6944 15.3358 17.9853 16.3975 17.0798 17.303C16.1744 18.2084 15.1127 18.9175 13.8947 19.4304C12.6768 19.9592 11.3787 20.2236 10.0005 20.2236C8.62228 20.2236 7.32421 19.9592 6.10626 19.4304C4.88831 18.9175 3.82661 18.2084 2.92116 17.303C2.01571 16.3975 1.30658 15.3358 0.793757 14.1179C0.264911 12.8999 0.000488281 11.6018 0.000488281 10.2236ZM10.0005 5.65632C9.27934 5.65632 8.66235 5.91273 8.14953 6.42556C7.63671 6.93838 7.3803 7.55536 7.3803 8.27652C7.3803 9.0137 7.63671 9.6387 8.14953 10.1515C8.66235 10.6643 9.27934 10.9207 10.0005 10.9207C10.7216 10.9207 11.3386 10.6643 11.8514 10.1515C12.3643 9.6387 12.6207 9.0137 12.6207 8.27652C12.6207 7.55536 12.3643 6.93838 11.8514 6.42556C11.3386 5.91273 10.7216 5.65632 10.0005 5.65632ZM5.84183 8.27652C5.84183 7.12267 6.24648 6.1411 7.05578 5.33181C7.86507 4.52251 8.84664 4.11786 10.0005 4.11786C11.1543 4.11786 12.1359 4.52251 12.9452 5.33181C13.7545 6.1411 14.1591 7.12267 14.1591 8.27652C14.1591 9.43036 13.7545 10.4159 12.9452 11.2332C12.1359 12.0506 11.1543 12.4592 10.0005 12.4592C8.84664 12.4592 7.86507 12.0506 7.05578 11.2332C6.24648 10.4159 5.84183 9.43036 5.84183 8.27652Z" fill="white"/>
</svg>
