<svg width="21" height="20" viewBox="0 0 21 20" fill="none" xmlns="http://www.w3.org/2000/svg">
<path d="M0.692871 1.24989C0.692871 1.04155 0.768993 0.861265 0.921237 0.709023C1.07348 0.556778 1.25377 0.480656 1.4621 0.480656H2.88037C3.21691 0.480656 3.52941 0.568798 3.81787 0.745079C4.10633 0.921362 4.33069 1.16175 4.49095 1.46623L5.01979 2.52393H19.0342C19.531 2.52393 19.9036 2.73627 20.152 3.16094C20.4004 3.58562 20.4044 4.01431 20.164 4.447L16.7746 10.3364C16.6143 10.6249 16.398 10.8492 16.1256 11.0095C15.8531 11.1698 15.5567 11.2499 15.2361 11.2499H7.51979L6.17364 13.4133C6.12556 13.5095 6.12556 13.6017 6.17364 13.6898C6.22172 13.7779 6.29383 13.822 6.38999 13.822H17.8804C18.0887 13.822 18.269 13.8941 18.4212 14.0383C18.5735 14.1826 18.6496 14.3669 18.6496 14.5912C18.6496 14.7996 18.5735 14.9799 18.4212 15.1321C18.269 15.2843 18.0887 15.3605 17.8804 15.3605H6.38999C5.68486 15.3605 5.16002 15.052 4.81547 14.435C4.47092 13.818 4.49095 13.205 4.87556 12.596L6.24576 10.3845L3.84191 3.60566L3.12076 2.16335C3.0887 2.11527 3.05265 2.07921 3.01258 2.05518C2.97252 2.03114 2.92845 2.01912 2.88037 2.01912H1.4621C1.25377 2.01912 1.07348 1.943 0.921237 1.79075C0.768993 1.63851 0.692871 1.45822 0.692871 1.24989ZM5.62076 4.06239L7.63999 9.71143H15.2361C15.2682 9.71143 15.3043 9.69941 15.3443 9.67537C15.3844 9.65133 15.4204 9.62328 15.4525 9.59123L18.6015 4.06239H5.62076ZM8.6496 18.173C8.6496 18.6057 8.49736 18.9702 8.19287 19.2667C7.88838 19.5632 7.52781 19.7114 7.11114 19.7114C6.67845 19.7114 6.31387 19.5632 6.01739 19.2667C5.72092 18.9702 5.57268 18.6057 5.57268 18.173C5.57268 17.7403 5.72092 17.3757 6.01739 17.0792C6.31387 16.7827 6.67845 16.6345 7.11114 16.6345C7.52781 16.6345 7.88838 16.7827 8.19287 17.0792C8.49736 17.3757 8.6496 17.7403 8.6496 18.173ZM16.3419 19.7114C16.7586 19.7114 17.1192 19.5632 17.4236 19.2667C17.7281 18.9702 17.8804 18.6057 17.8804 18.173C17.8804 17.7403 17.7281 17.3757 17.4236 17.0792C17.1192 16.7827 16.7586 16.6345 16.3419 16.6345C15.9092 16.6345 15.5446 16.7827 15.2482 17.0792C14.9517 17.3757 14.8034 17.7403 14.8034 18.173C14.8034 18.6057 14.9517 18.9702 15.2482 19.2667C15.5446 19.5632 15.9092 19.7114 16.3419 19.7114Z" fill="white"/>
</svg>
