<svg width="24" height="17" viewBox="0 0 24 17" fill="none" xmlns="http://www.w3.org/2000/svg">
<path d="M1.46015 0.0178413H14.8015C15.0098 0.0178413 15.1901 0.0939617 15.3424 0.246206C15.4946 0.398449 15.5707 0.578737 15.5707 0.787071C15.5707 0.995405 15.4946 1.17569 15.3424 1.32794C15.1901 1.48018 15.0098 1.5563 14.8015 1.5563H1.46015C1.25182 1.5563 1.07153 1.48018 0.919283 1.32794C0.76704 1.17569 0.690918 0.995405 0.690918 0.787071C0.690918 0.578737 0.76704 0.398449 0.919283 0.246206C1.07153 0.0939617 1.25182 0.0178413 1.46015 0.0178413ZM11.4601 9.00823C11.4601 10.2262 11.8888 11.2598 12.7462 12.1092C13.6036 12.9585 14.6332 13.3832 15.8351 13.3832C16.4441 13.3832 17.013 13.271 17.5419 13.0467C18.0707 12.8223 18.5355 12.5098 18.9361 12.1092C19.3368 11.7085 19.6493 11.2438 19.8736 10.715C20.098 10.1861 20.2101 9.6172 20.2101 9.00823C20.2101 7.8063 19.7855 6.77666 18.9361 5.91928C18.0868 5.06191 17.0531 4.63323 15.8351 4.63323C14.6332 4.63323 13.6036 5.06191 12.7462 5.91928C11.8888 6.77666 11.4601 7.8063 11.4601 9.00823ZM21.7486 9.00823C21.7486 9.69733 21.6404 10.3464 21.4241 10.9553C21.2077 11.5643 20.9073 12.1172 20.5226 12.614L23.5515 15.6188C23.6957 15.7791 23.7678 15.9634 23.7678 16.1717C23.7678 16.38 23.6957 16.5643 23.5515 16.7246C23.3912 16.8688 23.2069 16.9409 22.9986 16.9409C22.7903 16.9409 22.606 16.8688 22.4457 16.7246L19.4409 13.6957C18.9441 14.0803 18.3912 14.3808 17.7823 14.5972C17.1733 14.8135 16.5243 14.9217 15.8351 14.9217C15.0178 14.9217 14.2486 14.7694 13.5275 14.465C12.8223 14.1605 12.2013 13.7398 11.6645 13.2029C11.1276 12.6661 10.6989 12.0371 10.3784 11.3159C10.0739 10.5948 9.92169 9.82553 9.92169 9.00823C9.92169 8.19092 10.0739 7.42169 10.3784 6.70053C10.6989 5.99541 11.1276 5.37441 11.6645 4.83755C12.2013 4.30069 12.8223 3.87201 13.5275 3.55149C14.2486 3.24701 15.0178 3.09476 15.8351 3.09476C16.6525 3.09476 17.4217 3.24701 18.1428 3.55149C18.864 3.87201 19.493 4.30069 20.0299 4.83755C20.5667 5.37441 20.9874 5.99541 21.2919 6.70053C21.5964 7.42169 21.7486 8.19092 21.7486 9.00823ZM0.690918 6.94092C0.690918 7.14925 0.76704 7.32954 0.919283 7.48178C1.07153 7.63403 1.25182 7.71015 1.46015 7.71015H5.57073C5.77906 7.71015 5.95935 7.63403 6.11159 7.48178C6.26383 7.32954 6.33996 7.14925 6.33996 6.94092C6.33996 6.73258 6.26383 6.5523 6.11159 6.40005C5.95935 6.24781 5.77906 6.17169 5.57073 6.17169H1.46015C1.25182 6.17169 1.07153 6.24781 0.919283 6.40005C0.76704 6.5523 0.690918 6.73258 0.690918 6.94092ZM1.46015 12.3255H7.614C7.82233 12.3255 8.00262 12.4017 8.15486 12.5539C8.3071 12.7061 8.38323 12.8864 8.38323 13.0948C8.38323 13.3031 8.3071 13.4834 8.15486 13.6356C8.00262 13.7879 7.82233 13.864 7.614 13.864H1.46015C1.25182 13.864 1.07153 13.7879 0.919283 13.6356C0.76704 13.4834 0.690918 13.3031 0.690918 13.0948C0.690918 12.8864 0.76704 12.7061 0.919283 12.5539C1.07153 12.4017 1.25182 12.3255 1.46015 12.3255Z" fill="white"/>
</svg>
