<svg width="23" height="21" viewBox="0 0 23 21" fill="none" xmlns="http://www.w3.org/2000/svg">
<path d="M0 7.3916C0 6.39095 0.169922 5.44694 0.509766 4.55957C0.849609 3.6722 1.32161 2.88867 1.92578 2.20898C2.52995 1.5293 3.23796 0.991211 4.0498 0.594727C4.88053 0.198242 5.7679 0 6.71191 0C7.73145 0 8.68018 0.231283 9.55811 0.693848C10.436 1.15641 11.1771 1.77474 11.7812 2.54883C12.3854 1.77474 13.1265 1.15641 14.0044 0.693848C14.8823 0.231283 15.8311 0 16.8506 0C17.7946 0 18.682 0.198242 19.5127 0.594727C20.3245 0.991211 21.0326 1.5293 21.6367 2.20898C22.2409 2.88867 22.7129 3.6722 23.0527 4.55957C23.3926 5.44694 23.5625 6.39095 23.5625 7.3916C23.5625 8.20345 23.4256 8.98698 23.1519 9.74219C22.8781 10.4974 22.5241 11.2243 22.0898 11.9229C21.6556 12.6403 21.1506 13.32 20.5747 13.9619C19.9989 14.6038 19.4089 15.2174 18.8047 15.8027C17.5586 16.9733 16.3172 17.9881 15.0806 18.8472C13.8439 19.7062 12.9046 20.3245 12.2627 20.7021C12.1117 20.7965 11.9512 20.8438 11.7812 20.8438C11.6113 20.8438 11.4508 20.7965 11.2998 20.7021C10.6579 20.3057 9.71859 19.6826 8.48193 18.833C7.24528 17.9834 6.00391 16.9733 4.75781 15.8027C4.15365 15.2174 3.56364 14.6038 2.98779 13.9619C2.41195 13.32 1.9069 12.6403 1.47266 11.9229C1.03841 11.2243 0.684408 10.4974 0.410645 9.74219C0.136882 8.98698 0 8.20345 0 7.3916ZM6.71191 1.8125C5.40918 1.8125 4.26693 2.34587 3.28516 3.4126C2.30339 4.47933 1.8125 5.80566 1.8125 7.3916C1.8125 7.95801 1.91634 8.54329 2.12402 9.14746C2.33171 9.75163 2.63379 10.3652 3.03027 10.9883C3.40788 11.5924 3.85156 12.1872 4.36133 12.7725C4.87109 13.3577 5.41862 13.9336 6.00391 14.5C7.04232 15.4629 8.09489 16.3267 9.16162 17.0913C10.2284 17.856 11.1016 18.446 11.7812 18.8613C12.4609 18.446 13.3341 17.856 14.4009 17.0913C15.4676 16.3267 16.5202 15.4629 17.5586 14.5C18.1439 13.9525 18.6914 13.3813 19.2012 12.7866C19.7109 12.1919 20.1546 11.5924 20.5322 10.9883C20.9287 10.3652 21.2308 9.75163 21.4385 9.14746C21.6462 8.54329 21.75 7.95801 21.75 7.3916C21.75 5.80566 21.2591 4.47933 20.2773 3.4126C19.2956 2.34587 18.1533 1.8125 16.8506 1.8125C15.9632 1.8125 15.1372 2.06738 14.3726 2.57715C13.6079 3.08691 13.0179 3.77604 12.6025 4.64453C12.527 4.81445 12.4137 4.94189 12.2627 5.02686C12.1117 5.11182 11.9512 5.1543 11.7812 5.1543C11.6113 5.1543 11.4508 5.11182 11.2998 5.02686C11.1488 4.94189 11.0355 4.81445 10.96 4.64453C10.5446 3.77604 9.95459 3.08691 9.18994 2.57715C8.42529 2.06738 7.59928 1.8125 6.71191 1.8125Z" fill="white"/>
</svg>
