<svg width="11" height="18" viewBox="0 0 11 18" fill="none" xmlns="http://www.w3.org/2000/svg">
<path d="M3.641 12.256V11.9933C3.64615 11.092 3.72598 10.3735 3.8805 9.83781C4.04016 9.30216 4.27194 8.86952 4.57582 8.53989C4.87969 8.21025 5.24538 7.91153 5.67287 7.6437C5.9922 7.43768 6.27805 7.22394 6.53043 7.00246C6.7828 6.78099 6.98367 6.53635 7.13303 6.26852C7.2824 5.99554 7.35708 5.69166 7.35708 5.35688C7.35708 5.0015 7.2721 4.68989 7.10213 4.42207C6.93217 4.15424 6.70297 3.94822 6.41454 3.80401C6.13126 3.65979 5.81708 3.58769 5.472 3.58769C5.13722 3.58769 4.82046 3.66237 4.52174 3.81173C4.22301 3.95595 3.97836 4.17227 3.78779 4.4607C3.59722 4.74397 3.49421 5.09678 3.47876 5.51912H0.32666C0.352413 4.48902 0.599636 3.63919 1.06833 2.96963C1.53703 2.29492 2.15766 1.79274 2.93023 1.46311C3.70281 1.12833 4.55521 0.960938 5.48745 0.960938C6.5124 0.960938 7.41889 1.1309 8.20691 1.47084C8.99494 1.80562 9.613 2.29234 10.0611 2.931C10.5092 3.56966 10.7332 4.33966 10.7332 5.241C10.7332 5.8436 10.6328 6.37925 10.4319 6.84795C10.2362 7.31149 9.96066 7.72353 9.60527 8.08407C9.24989 8.43945 8.83012 8.76136 8.34598 9.04978C7.93909 9.29186 7.6043 9.54423 7.34163 9.80691C7.08411 10.0696 6.89096 10.3735 6.7622 10.7185C6.63859 11.0636 6.57421 11.4885 6.56906 11.9933V12.256H3.641ZM5.1707 17.2004C4.65565 17.2004 4.21528 17.0202 3.8496 16.6596C3.48906 16.294 3.31137 15.8562 3.31652 15.3463C3.31137 14.8415 3.48906 14.4089 3.8496 14.0483C4.21528 13.6878 4.65565 13.5075 5.1707 13.5075C5.65999 13.5075 6.09006 13.6878 6.4609 14.0483C6.83173 14.4089 7.01972 14.8415 7.02487 15.3463C7.01972 15.6862 6.92959 15.9978 6.75447 16.2811C6.58451 16.5592 6.36046 16.7832 6.08233 16.9532C5.80421 17.118 5.50033 17.2004 5.1707 17.2004Z" fill="white"/>
</svg>
