<svg width="10.406494" height="16.239258" viewBox="0 0 10.4065 16.2393" fill="none" xmlns="http://www.w3.org/2000/svg" xmlns:xlink="http://www.w3.org/1999/xlink">
	<desc>
			Created with Pixso.
	</desc>
	<defs/>
	<path d="M3.31 11.29L3.31 11.03C3.31 10.13 3.39 9.41 3.55 8.87C3.71 8.34 3.94 7.9 4.24 7.57C4.55 7.24 4.91 6.95 5.34 6.68C5.66 6.47 5.95 6.26 6.2 6.04C6.45 5.82 6.65 5.57 6.8 5.3C6.95 5.03 7.03 4.73 7.03 4.39C7.03 4.04 6.94 3.72 6.77 3.46C6.6 3.19 6.37 2.98 6.08 2.84C5.8 2.69 5.49 2.62 5.14 2.62C4.81 2.62 4.49 2.7 4.19 2.85C3.89 2.99 3.65 3.21 3.46 3.5C3.27 3.78 3.16 4.13 3.15 4.55L0 4.55C0.02 3.52 0.27 2.67 0.74 2C1.21 1.33 1.83 0.83 2.6 0.5C3.37 0.16 4.22 0 5.16 0C6.18 0 7.09 0.16 7.88 0.5C8.66 0.84 9.28 1.33 9.73 1.96C10.18 2.6 10.4 3.37 10.4 4.28C10.4 4.88 10.3 5.41 10.1 5.88C9.9 6.35 9.63 6.76 9.27 7.12C8.92 7.47 8.5 7.8 8.01 8.08C7.61 8.33 7.27 8.58 7.01 8.84C6.75 9.1 6.56 9.41 6.43 9.75C6.31 10.1 6.24 10.52 6.24 11.03L6.24 11.29L3.31 11.29ZM4.84 16.23C4.32 16.23 3.88 16.05 3.52 15.69C3.16 15.33 2.98 14.89 2.98 14.38C2.98 13.88 3.16 13.44 3.52 13.08C3.88 12.72 4.32 12.54 4.84 12.54C5.33 12.54 5.76 12.72 6.13 13.08C6.5 13.44 6.69 13.88 6.69 14.38C6.69 14.72 6.6 15.03 6.42 15.32C6.25 15.59 6.03 15.82 5.75 15.99C5.47 16.15 5.17 16.23 4.84 16.23Z" fill="#FFFFFF" fill-opacity="1.000000" fill-rule="nonzero"/>
</svg>
